<?xml version="1.0" standalone="no"?>
<!DOCTYPE svg PUBLIC "-//W3C//DTD SVG 20010904//EN"
 "http://www.w3.org/TR/2001/REC-SVG-20010904/DTD/svg10.dtd">
<svg version="1.0" xmlns="http://www.w3.org/2000/svg"
 width="300.000000pt" height="300.000000pt" viewBox="0 0 300.000000 300.000000"
 preserveAspectRatio="xMidYMid meet">
<metadata>
Created by potrace 1.14, written by Peter Selinger 2001-2017
</metadata>
<g transform="translate(0.000000,300.000000) scale(0.100000,-0.100000)"
fill="#000000" stroke="none">
<path d="M1305 2978 c-17 -5 -61 -15 -100 -22 l-70 -12 43 -31 c52 -38 44 -45
-57 -48 -48 -1 -88 -8 -108 -19 -36 -18 -44 -37 -13 -29 60 16 150 -24 150
-67 0 -16 -4 -17 -27 -11 -63 18 -156 -18 -184 -71 -10 -18 -9 -20 5 -15 9 4
23 10 33 14 11 4 7 -7 -14 -38 -33 -47 -58 -119 -42 -119 5 0 9 5 9 11 0 21
60 87 94 103 36 17 82 9 98 -17 8 -13 -44 -46 -73 -47 -25 0 -77 -64 -88 -107
-12 -44 -24 -165 -15 -143 20 45 78 119 102 129 32 13 66 8 87 -13 23 -23 18
-33 -27 -58 -72 -40 -78 -55 -83 -212 -2 -76 -9 -154 -16 -173 -6 -19 -9 -36
-7 -38 6 -7 65 48 77 72 6 12 11 34 12 50 l1 28 9 -30 c13 -43 9 -267 -6 -355
-20 -111 -122 -370 -146 -370 -5 0 -9 -4 -9 -10 0 -22 -57 -89 -88 -104 -85
-41 -201 1 -234 84 -17 43 -11 141 12 210 13 36 53 126 90 200 123 244 153
374 121 507 -22 91 -112 172 -199 178 -21 1 -41 10 -51 22 -22 29 -71 51 -100
47 -39 -7 -120 -56 -152 -92 -29 -33 -30 -35 -12 -54 44 -50 174 -80 234 -55
28 11 38 23 47 56 14 46 18 47 70 26 67 -28 102 -75 120 -160 12 -59 7 -105
-24 -198 -40 -120 -59 -162 -120 -262 -30 -49 -61 -99 -67 -110 -7 -11 -22
-34 -34 -51 -53 -76 -65 -216 -26 -304 27 -59 99 -139 141 -157 26 -11 32 -18
27 -31 -41 -97 -42 -242 -3 -338 37 -90 72 -139 132 -183 39 -29 56 -49 61
-72 10 -43 -13 -61 -58 -48 -43 12 -47 2 -11 -29 18 -15 52 -44 77 -66 25 -21
53 -56 63 -78 15 -34 16 -45 4 -107 -7 -38 -10 -81 -6 -95 8 -31 60 -66 99
-66 24 0 27 4 27 33 0 17 3 42 6 55 6 22 8 21 54 -22 54 -50 90 -64 126 -47
30 13 31 35 1 65 -63 63 -55 126 13 106 55 -16 70 -13 70 13 -1 47 -25 62
-103 62 -81 1 -107 13 -147 71 -14 19 -34 47 -45 62 -12 15 -21 34 -20 42 0 8
-5 20 -11 27 -15 16 -7 90 14 125 22 38 46 43 87 19 39 -23 40 -21 50 34 9 49
39 104 99 176 70 86 82 197 29 289 -73 127 -77 152 -35 198 21 22 43 33 87 42
151 29 263 85 333 165 18 20 57 72 88 115 31 44 65 87 77 95 29 21 86 19 121
-4 l28 -19 -34 -11 c-19 -6 -59 -33 -89 -60 l-54 -49 29 -11 c41 -16 97 -5
166 34 66 37 104 47 138 34 24 -9 30 -29 8 -29 -13 0 -46 -41 -46 -58 0 -11
116 10 146 26 16 9 26 8 43 -5 13 -8 39 -18 59 -20 20 -3 64 -18 98 -34 33
-16 65 -29 70 -29 5 0 26 -9 47 -20 44 -24 52 -5 25 63 -11 28 -60 62 -72 50
-3 -4 -6 -1 -6 6 0 16 43 31 71 24 13 -3 34 -14 45 -25 19 -17 22 -17 28 -3
17 44 -31 94 -98 101 -17 2 -37 6 -43 9 -41 15 30 59 87 53 42 -4 44 10 6 36
-46 30 -81 26 -162 -15 -93 -48 -145 -57 -196 -36 -20 9 -88 49 -150 90 -129
85 -173 109 -182 100 -3 -4 -3 14 0 38 15 112 -62 231 -168 260 -40 10 -42 25
-5 38 19 7 19 9 -9 28 -41 29 -138 63 -179 63 -40 0 -75 37 -75 81 0 44 33 48
88 9 52 -36 71 -35 120 10 23 20 32 37 30 53 -3 21 -7 22 -101 22 -96 0 -99 1
-121 28 -79 99 94 215 204 137 37 -26 38 -33 4 -20 -36 14 -54 12 -54 -5 0 -8
3 -15 8 -16 20 -2 46 -9 122 -33 46 -14 101 -26 122 -26 49 0 108 24 108 44 0
20 -14 20 -46 0 -41 -27 -205 -1 -176 28 16 16 15 50 -3 74 -20 26 -19 34 6
34 28 0 22 27 -12 53 -41 30 -111 34 -154 8 -20 -11 -44 -21 -53 -21 -23 0
-122 47 -122 58 0 5 33 8 73 6 91 -4 112 1 125 31 8 18 8 26 -3 35 -16 13 -73
17 -122 8 -22 -4 -46 1 -82 18 -52 25 -98 29 -156 12z"/>
<path d="M2434 2615 c-12 -8 -40 -51 -62 -97 -76 -153 -164 -215 -340 -239
-43 -6 -79 -12 -80 -14 -2 -2 21 -38 53 -80 67 -92 129 -135 192 -135 l43 0
-36 50 c-19 27 -47 58 -62 69 -42 31 -4 26 64 -9 61 -31 117 -46 134 -35 8 5
-48 65 -106 111 -18 14 -16 15 31 10 28 -2 60 -7 71 -11 20 -6 22 -3 22 36 1
78 45 111 164 122 65 6 106 30 136 81 16 27 18 36 7 40 -18 7 -66 -2 -82 -16
-9 -7 -13 -7 -13 1 0 24 20 49 44 55 23 6 24 9 14 31 -21 47 -72 45 -129 -5
-19 -16 -35 -27 -37 -25 -2 2 4 17 12 34 9 16 16 32 16 36 0 10 -36 5 -56 -10z"/>
<path d="M1676 1314 c-21 -8 -44 -19 -51 -24 -7 -6 -46 -18 -86 -26 -121 -25
-146 -69 -89 -154 48 -72 66 -153 48 -222 -6 -26 -9 -51 -5 -54 3 -4 34 1 68
10 67 19 119 15 140 -10 12 -14 9 -20 -16 -39 -15 -13 -46 -31 -67 -41 -95
-43 7 -77 114 -38 58 21 95 27 125 19 l25 -6 -26 -26 c-38 -38 -33 -47 22 -38
77 13 164 14 191 2 14 -6 47 -29 73 -50 36 -29 59 -40 97 -44 30 -3 51 -1 55
6 11 16 -29 76 -59 89 -38 17 -22 32 22 21 22 -4 50 -21 66 -39 27 -31 27 -31
36 -8 11 30 4 53 -29 88 -23 25 -36 30 -73 30 -25 0 -49 6 -56 14 -18 22 8 35
62 30 51 -5 57 2 30 35 -28 33 -81 32 -154 -1 -108 -50 -189 -44 -262 17 -54
45 -55 76 -7 173 63 128 53 175 -55 257 -46 35 -93 45 -139 29z"/>
</g>
</svg>
