<svg width="154" height="106" viewBox="0 0 154 106" fill="none" xmlns="http://www.w3.org/2000/svg">
<g clip-path="url(#clip0_3852_2192)">
<path d="M139.726 0.501025C135.991 0.512143 132.412 2.00393 129.775 4.64924C127.137 7.29455 125.656 10.8775 125.656 14.613C125.656 15.2924 125.926 15.9444 126.406 16.4248C126.887 16.9053 127.539 17.1754 128.218 17.1754C128.894 17.1646 129.54 16.8912 130.018 16.413C130.496 15.9349 130.769 15.2891 130.78 14.613C130.769 13.04 131.176 11.4927 131.958 10.1279C132.74 8.76308 133.87 7.62953 135.232 6.84307C136.597 6.05479 138.145 5.63987 139.722 5.63926C141.299 5.63865 142.848 6.05225 144.214 6.83948C145.58 7.6267 146.715 8.75938 147.505 10.1238C148.295 11.4882 148.711 13.0364 148.714 14.613V38.9311H2.72158C2.0421 38.9311 1.39019 39.2012 0.909717 39.6817C0.429249 40.1622 0.160156 40.8136 0.160156 41.4931V57.0754C0.185084 66.3432 3.57656 75.2859 9.70347 82.2395C15.8304 89.1931 24.275 93.6839 33.4659 94.8754V102.897C33.4659 103.233 33.532 103.567 33.6607 103.878C33.7895 104.189 33.9786 104.471 34.2165 104.709C34.4544 104.947 34.7362 105.135 35.047 105.264C35.3579 105.393 35.6909 105.459 36.0273 105.459C36.7068 105.459 37.3587 105.189 37.8392 104.709C38.3196 104.228 38.5898 103.577 38.5898 102.897V95.2112H115.408V102.897C115.408 103.233 115.474 103.567 115.603 103.878C115.732 104.189 115.921 104.471 116.159 104.709C116.396 104.947 116.678 105.135 116.989 105.264C117.3 105.393 117.633 105.459 117.969 105.459C118.306 105.459 118.64 105.393 118.951 105.264C119.262 105.135 119.543 104.947 119.781 104.709C120.019 104.471 120.208 104.189 120.337 103.878C120.466 103.567 120.532 103.233 120.532 102.897V94.8754C129.723 93.6839 138.167 89.1931 144.294 82.2395C150.421 75.2859 153.813 66.3432 153.838 57.0754V14.613C153.795 10.873 152.287 7.29891 149.638 4.65898C148.337 3.33759 146.788 2.28668 145.08 1.56589C143.371 0.845111 141.538 0.468677 139.684 0.458984L139.726 0.501025ZM148.714 57.0754C148.714 61.4197 147.857 65.7208 146.193 69.7339C144.53 73.7469 142.091 77.3926 139.018 80.4625C135.944 83.5324 132.295 85.9667 128.28 87.6254C124.265 89.284 119.962 90.1349 115.618 90.1294H38.3796C34.0353 90.1349 29.7332 89.284 25.718 87.6254C21.7029 85.9667 18.0539 83.5324 14.9801 80.4625C11.9063 77.3926 9.46716 73.7469 7.80342 69.7339C6.13968 65.7208 5.28403 61.4197 5.28403 57.0754V44.055H148.714V57.0754Z" fill="black"/>
</g>
<defs>
<clipPath id="clip0_3852_2192">
<rect width="153.678" height="105" fill="white" transform="translate(0.160156 0.5)"/>
</clipPath>
</defs>
</svg>
