<svg width="176" height="70" viewBox="0 0 176 70" fill="none" xmlns="http://www.w3.org/2000/svg">
<path d="M22.6217 58.8757H3.24893C2.549 58.8647 1.88166 58.5786 1.39058 58.0797C0.899511 57.5809 0.624581 56.9092 0.624667 56.2092V42.9602C0.619701 42.6137 0.683109 42.27 0.811823 41.9482C0.940537 41.6264 1.13172 41.3331 1.37431 41.0856L10.665 31.8366L0.915573 12.3383C0.708003 11.9379 0.607206 11.491 0.622632 11.0404C0.638059 10.5897 0.769607 10.1505 1.00407 9.76536C1.23852 9.38018 1.56798 9.06198 1.96121 8.84128C2.35444 8.62058 2.798 8.5046 3.24893 8.50511H21.8303C22.2663 8.50085 22.6969 8.60557 23.0824 8.80924C23.468 9.01291 23.7964 9.30924 24.0386 9.67178L28.2048 15.8378L61.535 2.42252C64.6633 1.17761 68.0009 0.541484 71.3678 0.5479H92.6986C97.1273 0.553404 101.41 2.13327 104.781 5.00558L118.113 16.4628H143.111C150.645 16.4547 157.956 19.0191 163.835 23.7314C169.714 28.4437 173.809 35.0213 175.441 42.3769C175.599 43.0429 175.494 43.7443 175.149 44.3354L167.192 57.5839C166.951 57.9761 166.614 58.3008 166.214 58.5268C165.813 58.7528 165.361 58.8728 164.9 58.8757H153.235C152.135 61.9742 150.102 64.656 147.416 66.5527C144.731 68.4493 141.524 69.4678 138.236 69.4678C134.948 69.4678 131.741 68.4493 129.055 66.5527C126.369 64.656 124.337 61.9742 123.238 58.8757H52.4111C51.3114 61.9742 49.2787 64.656 46.593 66.5527C43.9073 68.4493 40.7 69.4678 37.4121 69.4678C34.1242 69.4678 30.917 68.4493 28.2313 66.5527C25.5456 64.656 23.5139 61.9742 22.4142 58.8757H22.6217ZM21.7052 53.5427C21.9139 49.468 23.6795 45.6291 26.6374 42.8189C29.5953 40.0086 33.5203 38.4415 37.6003 38.4415C41.6803 38.4415 45.6043 40.0086 48.5622 42.8189C51.5201 45.6291 53.2857 49.468 53.4944 53.5427H122.446C122.446 49.3218 124.122 45.2736 127.107 42.2889C130.092 39.3042 134.14 37.6273 138.361 37.6273C142.582 37.6273 146.63 39.3042 149.615 42.2889C152.599 45.2736 154.276 49.3218 154.276 53.5427H163.358L169.983 42.5437C168.441 36.5793 164.96 31.2967 160.088 27.5259C155.216 23.7552 149.23 21.7101 143.069 21.7124H117.155C116.52 21.6945 115.907 21.4756 115.405 21.0873L101.323 9.00504C98.9278 6.93321 95.8656 5.79468 92.6986 5.79744H71.3678C68.6715 5.79125 65.9983 6.30027 63.493 7.29724L27.9963 21.5038C27.4326 21.7346 26.8071 21.7657 26.2234 21.5913C25.6398 21.417 25.1331 21.0478 24.7882 20.5457L20.2893 13.7546H7.4152L16.1231 31.1282C16.3648 31.6245 16.4466 32.1834 16.357 32.7282C16.2675 33.2729 16.0106 33.7767 15.6226 34.1695L5.7908 44.0018V53.501L21.7052 53.5427ZM37.6206 64.1664C39.7219 64.1664 41.7761 63.5436 43.5232 62.3762C45.2703 61.2088 46.6321 59.5496 47.4362 57.6083C48.2403 55.667 48.4503 53.5311 48.0404 51.4703C47.6305 49.4094 46.6192 47.5163 45.1334 46.0305C43.6476 44.5447 41.7545 43.5329 39.6936 43.123C37.6328 42.7131 35.4964 42.9231 33.5551 43.7272C31.6138 44.5313 29.954 45.8931 28.7867 47.6402C27.6193 49.3873 26.9965 51.4415 26.9965 53.5427C26.9965 56.3604 28.1156 59.0625 30.1079 61.0549C32.1003 63.0473 34.803 64.1664 37.6206 64.1664V64.1664ZM138.361 64.1664C140.462 64.1664 142.516 63.5436 144.263 62.3762C146.01 61.2088 147.372 59.5496 148.176 57.6083C148.98 55.667 149.19 53.5311 148.781 51.4703C148.371 49.4094 147.359 47.5163 145.873 46.0305C144.388 44.5447 142.495 43.5329 140.434 43.123C138.373 42.7131 136.236 42.9231 134.295 43.7272C132.354 44.5313 130.695 45.8931 129.528 47.6402C128.36 49.3873 127.737 51.4415 127.737 53.5427C127.737 56.3604 128.857 59.0625 130.849 61.0549C132.841 63.0473 135.543 64.1664 138.361 64.1664V64.1664Z" fill="black"/>
</svg>
