<svg width="154" height="106" viewBox="0 0 154 106" fill="none" xmlns="http://www.w3.org/2000/svg">
<g clip-path="url(#clip0_3855_2283)">
<path d="M81.6587 26.8896V105.293H73.6948V42.7352L42.7876 95.6363H38.6611L7.75388 43.0651V105.623H-0.210938V27.2196H6.63965L40.7657 85.5267L74.6025 27.2196L81.6587 26.8896Z" fill="black"/>
<path d="M153.999 98.3189V105.499H98.8279V99.763L131.51 67.7829C140.382 58.9935 142.074 53.7117 142.074 48.3473C142.074 39.2278 135.677 33.616 123.669 33.616C119.665 33.3654 115.656 34.0215 111.941 35.5362C108.225 37.0509 104.9 39.3851 102.212 42.3641L96.4766 37.4534C100.002 33.6389 104.327 30.6513 109.142 28.7038C113.957 26.7562 119.144 25.8971 124.33 26.1882C140.3 26.1882 150.409 34.4412 150.409 47.4396C150.409 54.9498 148.016 61.7172 137.452 72.1985L110.754 98.4841L153.999 98.3189Z" fill="black"/>
</g>
<defs>
<clipPath id="clip0_3855_2283">
<rect width="154" height="79.3108" fill="white" transform="translate(0 26.1895)"/>
</clipPath>
</defs>
</svg>
