<svg width="150" height="106" viewBox="0 0 150 106" fill="none" xmlns="http://www.w3.org/2000/svg">
<g clip-path="url(#clip0_3852_2189)">
<path d="M143.393 38.9299H45.5325C45.163 38.9299 44.7973 39.0028 44.4559 39.1442C44.1144 39.2856 43.8046 39.493 43.5433 39.7543C43.282 40.0156 43.0746 40.3255 42.9332 40.6669C42.7917 41.0083 42.7188 41.3746 42.7188 41.7441V44.7259H38.9803C38.9803 40.2703 37.2111 35.9974 34.0604 32.8468C30.9098 29.6962 26.6359 27.9259 22.1803 27.9259H5.63252V3.10378C5.68078 2.71399 5.64618 2.31875 5.52998 1.94355C5.41379 1.56836 5.21895 1.22221 4.95884 0.927905C4.69873 0.633605 4.37868 0.397688 4.02061 0.236279C3.66253 0.0748701 3.27417 -0.00878906 2.8814 -0.00878906C2.48862 -0.00878906 2.10027 0.0748701 1.74219 0.236279C1.38411 0.397688 1.0651 0.633605 0.804982 0.927905C0.544868 1.22221 0.350033 1.56836 0.233839 1.94355C0.117646 2.31875 0.0820193 2.71399 0.130275 3.10378V102.602C0.213352 103.273 0.539281 103.891 1.04595 104.339C1.55262 104.786 2.2052 105.033 2.8814 105.033C3.5576 105.033 4.21121 104.786 4.71787 104.339C5.22454 103.891 5.54944 103.273 5.63252 102.602V88.7839H42.5507V91.6401C42.5507 92.3864 42.8474 93.1022 43.3751 93.6299C43.9028 94.1576 44.618 94.4538 45.3644 94.4538H138.269V102.602C138.269 103.337 138.561 104.042 139.081 104.562C139.601 105.082 140.305 105.374 141.04 105.374C141.776 105.374 142.481 105.082 143.001 104.562C143.521 104.042 143.813 103.337 143.813 102.602V94.4538H146.711C147.457 94.4538 148.172 94.1576 148.7 93.6299C149.228 93.1022 149.525 92.3864 149.525 91.6401V45.1458C149.493 43.5215 148.839 41.9712 147.698 40.8146C146.557 39.658 145.016 38.9834 143.393 38.9299ZM5.80068 33.6799H22.3905C25.3201 33.6799 28.1304 34.8435 30.2019 36.915C32.2734 38.9865 33.437 41.7963 33.437 44.7259H5.80068V33.6799ZM42.7188 83.4078H5.80068V50.2702H42.7188V83.4078ZM144.064 88.9521H48.3893V44.5578H143.393C143.578 44.5785 143.75 44.6673 143.874 44.8069C143.998 44.9465 144.066 45.1272 144.064 45.314V88.9521Z" fill="black"/>
</g>
<defs>
<clipPath id="clip0_3852_2189">
<rect width="149.394" height="105" fill="white" transform="translate(0.304688 0.5)"/>
</clipPath>
</defs>
</svg>
