<svg xmlns="http://www.w3.org/2000/svg" width="24" height="24" viewBox="0 0 24 24"><g transform="translate(237 23)"><rect width="24" height="24" transform="translate(-237 -23)" fill="none"/><path d="M15.795,7.963l-2.467-2.65V1.33h-2.39V2.923L8.144.157a.315.315,0,0,0-.443,0L.066,7.991a.315.315,0,0,0,.227.553H1.687v5.372H6.76V9.44H9.15v4.476h5.073V8.544h1.339a.315.315,0,0,0,.232-.581Zm-1.6-.077h-.642V13.2H9.726V8.771H6.185V13.2H2.351V7.886h-1.3L7.917.832l2.562,2.584,1.012,1V1.988h1.184V5.662l2.108,2.213Z" transform="translate(-232.957 -18.066)"/></g></svg>