<svg xmlns="http://www.w3.org/2000/svg" xmlns:xlink="http://www.w3.org/1999/xlink" width="24" height="24" viewBox="0 0 24 24"><defs><clipPath id="a"><rect width="17.484" height="12.288" fill="#fff"/></clipPath></defs><g transform="translate(-198 91)"><rect width="24" height="24" transform="translate(198 -91)" fill="none"/><g transform="translate(201 -85)" clip-path="url(#a)"><path d="M16.722,4.436H5.269a.329.329,0,0,0-.329.329v.349H4.5A1.966,1.966,0,0,0,2.536,3.148H.6V.243a.324.324,0,1,0-.644,0V11.888a.324.324,0,0,0,.644,0V10.27H4.92V10.6a.329.329,0,0,0,.329.329H16.122v.954a.324.324,0,0,0,.649,0v-.954h.339a.329.329,0,0,0,.329-.329V5.163a.742.742,0,0,0-.718-.727ZM.619,3.822H2.561A1.293,1.293,0,0,1,3.854,5.114H.619ZM4.94,9.641H.619V5.763H4.94ZM16.8,10.29H5.6v-5.2H16.722a.088.088,0,0,1,.079.088Z" transform="translate(0.024 0.062)"/></g></g></svg>