<svg xmlns="http://www.w3.org/2000/svg" xmlns:xlink="http://www.w3.org/1999/xlink" width="24" height="24" viewBox="0 0 24 24"><defs><clipPath id="a"><rect width="20.644" height="8.135" fill="#fff"/></clipPath></defs><g transform="translate(-152 91)"><rect width="24" height="24" transform="translate(152 -91)" fill="none"/><g transform="translate(154 -83)" clip-path="url(#a)"><path d="M2.623,6.881H.337a.315.315,0,0,1-.31-.315V5a.309.309,0,0,1,.088-.221l1.1-1.091-1.15-2.3A.31.31,0,0,1,.337.939H2.53a.31.31,0,0,1,.261.138l.492.727L7.214.221A3.121,3.121,0,0,1,8.374,0h2.517a2.2,2.2,0,0,1,1.425.526l1.573,1.352h2.949a3.9,3.9,0,0,1,3.814,3.057.315.315,0,0,1-.034.231l-.939,1.563a.319.319,0,0,1-.27.152H18.033a1.878,1.878,0,0,1-3.539,0H6.137a1.878,1.878,0,0,1-3.539,0Zm-.108-.629a1.878,1.878,0,0,1,3.75,0H14.4a1.878,1.878,0,1,1,3.755,0h1.071l.782-1.3A3.279,3.279,0,0,0,16.833,2.5H13.776a.354.354,0,0,1-.207-.074L11.908,1A1.553,1.553,0,0,0,10.891.619H8.374A2.5,2.5,0,0,0,7.445.8L3.257,2.472a.315.315,0,0,1-.378-.113l-.531-.8H.829l1.027,2.05a.314.314,0,0,1-.059.359L.637,5.127V6.247ZM4.393,7.506a1.253,1.253,0,1,0-.886-.367A1.253,1.253,0,0,0,4.393,7.506Zm11.885,0a1.253,1.253,0,1,0-.886-.367A1.254,1.254,0,0,0,16.278,7.506Z" transform="translate(-0.014 0)"/></g></g></svg>