<svg xmlns="http://www.w3.org/2000/svg" width="24" height="24" viewBox="0 0 24 24"><g transform="translate(197 23)"><rect width="24" height="24" transform="translate(-197 -23)" fill="none"/><path d="M.9-.08A.84.84,0,0,0,.226.283,1.254,1.254,0,0,0,0,1.035V7.253a.627.627,0,0,0,.627.627h1.51l.038,1.937a.332.332,0,0,0,.32.32H3.886v5.077a.32.32,0,0,0,.32.326H9.847a.326.326,0,0,0,.326-.326V11.258A3.66,3.66,0,0,0,12.567,7.83a.627.627,0,0,0,.458-.627v-.57a.627.627,0,0,0-.627-.627H4.82V.948A1.254,1.254,0,0,0,4.588.2a.834.834,0,0,0-.664-.363ZM.9.547H3.968c.038,0,.081,0,.138.1a.627.627,0,0,1,.107.364v.414H.652V1.01A.627.627,0,0,1,.759.647C.815.565.859.547.9.547ZM.652,2.076h3.56V7.228H.652ZM4.864,6.72h7.521v.508H4.864ZM2.821,7.88h9.126a2.871,2.871,0,0,1-2.72,2.908H6.876a.326.326,0,1,0,0,.627H9.552v3.491H4.538V9.829a.326.326,0,0,0-.32-.326H2.827Z" transform="translate(-191.044 -18.649)"/></g></svg>