<svg xmlns="http://www.w3.org/2000/svg" xmlns:xlink="http://www.w3.org/1999/xlink" width="24" height="24" viewBox="0 0 24 24"><defs><clipPath id="a"><rect width="17.985" height="12.288" fill="#fff"/></clipPath></defs><g transform="translate(-229 91)"><rect width="24" height="24" transform="translate(229 -91)" fill="none"/><g transform="translate(232 -85)" clip-path="url(#a)"><path d="M16.334,0a1.652,1.652,0,0,0-1.647,1.652.3.3,0,0,0,.3.3.3.3,0,0,0,.3-.3,1.049,1.049,0,0,1,2.1,0V4.493H.3a.3.3,0,0,0-.3.3V6.616A4.473,4.473,0,0,0,3.9,11.04v.939a.3.3,0,1,0,.6,0v-.9h8.99v.9a.3.3,0,1,0,.6,0V11.04a4.473,4.473,0,0,0,3.9-4.424V1.647A1.671,1.671,0,0,0,17.494.482,1.647,1.647,0,0,0,16.329-.01Zm1.052,6.621a3.868,3.868,0,0,1-3.873,3.868H4.473A3.868,3.868,0,0,1,.6,6.616V5.092H17.386Z" transform="translate(0 0.005)"/></g></g></svg>