<svg xmlns="http://www.w3.org/2000/svg" width="24" height="24" viewBox="0 0 24 24"><g transform="translate(161 22)"><rect width="24" height="24" transform="translate(-161 -22)" fill="none"/><path d="M1.243,10.551A1.277,1.277,0,0,1,0,9.247V1.3A1.276,1.276,0,0,1,1.243,0H13.654A1.276,1.276,0,0,1,14.9,1.3V9.247a1.277,1.277,0,0,1-1.242,1.3ZM.624,9.27a.657.657,0,0,0,.619.686H13.654a.658.658,0,0,0,.624-.686v-4.9H.624Zm0-5.549H14.278V2.484H.624ZM.792.834a.658.658,0,0,0-.168.47V1.86H14.278V1.3a.658.658,0,0,0-.624-.686H1.243A.661.661,0,0,0,.792.834ZM11.553,8.695A1.243,1.243,0,0,1,10.644,7a1.243,1.243,0,1,1,.909,1.693Zm.112-1.834a.623.623,0,0,0-.22,1.131.611.611,0,0,0,.347.1.623.623,0,0,0,.513-.97.623.623,0,0,0-.641-.264Zm-9.526.923a.311.311,0,0,1,0-.618H6.383a.311.311,0,0,1,0,.618Z" transform="translate(-156 -15)"/></g></svg>