<svg xmlns="http://www.w3.org/2000/svg" width="24" height="24" viewBox="0 0 24 24"><g transform="translate(124 21)"><rect width="24" height="24" transform="translate(-124 -21)" fill="none"/><path d="M1.067,13.965A1.072,1.072,0,0,1,0,12.9V3.363a.2.2,0,0,1,.016-.079.2.2,0,0,1,.045-.067L3.1.068a.189.189,0,0,1,.07-.051A.2.2,0,0,1,3.251,0h6.882a.91.91,0,0,1,.911.911v.38h.028V12.9a1.072,1.072,0,0,1-1.066,1.067ZM.7,12.725a.56.56,0,0,0,.025.231.577.577,0,0,0,.117.2.557.557,0,0,0,.417.183h8.48a.61.61,0,0,0,.564-.625V1.084A.47.47,0,0,0,9.842.615H3.559V2.849a.877.877,0,0,1-.871.877H.7Zm.547-9.72H2.486a.325.325,0,0,0,.128-.023.335.335,0,0,0,.109-.071A.323.323,0,0,0,2.8,2.8a.327.327,0,0,0,.025-.128V1.352ZM8.825,11.38h-6.6a.374.374,0,0,1-.161,0,.363.363,0,0,1-.144-.636.342.342,0,0,1,.144-.07.361.361,0,0,1,.161,0h6.6a.361.361,0,0,1,.161,0,.347.347,0,0,1,.144.07.363.363,0,0,1-.144.636.362.362,0,0,1-.084.01A.389.389,0,0,1,8.825,11.38Zm0-2.5h-6.6a.361.361,0,0,1-.161,0,.36.36,0,0,1-.244-.2.359.359,0,0,1,0-.313.367.367,0,0,1,.1-.126.342.342,0,0,1,.144-.07.361.361,0,0,1,.161,0h6.6a.361.361,0,0,1,.161,0,.347.347,0,0,1,.144.07.367.367,0,0,1,.1.126.365.365,0,0,1-.1.44.371.371,0,0,1-.144.07.355.355,0,0,1-.082.01A.367.367,0,0,1,8.825,8.881ZM4.843,6.39H2.223a.358.358,0,0,1-.158-.006.371.371,0,0,1-.14-.073.359.359,0,0,1-.1-.124A.365.365,0,0,1,1.8,6.033a.358.358,0,0,1,.034-.153.362.362,0,0,1,.1-.125.384.384,0,0,1,.14-.073.372.372,0,0,1,.158-.006h2.62a.36.36,0,0,1,.3.079.362.362,0,0,1,.1.125.358.358,0,0,1,.034.153.365.365,0,0,1-.034.154.364.364,0,0,1-.235.2.368.368,0,0,1-.094.012A.343.343,0,0,1,4.843,6.39Zm2.575,0a.068.068,0,0,1-.067-.067V5.876a1.559,1.559,0,0,1-.743-.307.078.078,0,0,1,0-.09l.178-.4a.064.064,0,0,1,.05-.045.083.083,0,0,1,.068,0,1.433,1.433,0,0,0,.854.285c.2,0,.526-.04.526-.28S8.06,4.8,7.7,4.709c-.464-.106-1.039-.246-1.039-.883a.86.86,0,0,1,.715-.832V2.525a.067.067,0,0,1,.02-.048.067.067,0,0,1,.048-.019H8.1a.07.07,0,0,1,.046.021.076.076,0,0,1,.022.046v.441a1.556,1.556,0,0,1,.62.224.08.08,0,0,1,.033.095l-.162.391a.081.081,0,0,1-.019.024.067.067,0,0,1-.026.014.062.062,0,0,1-.061,0,1.512,1.512,0,0,0-.715-.2c-.2,0-.519.039-.519.3s.218.24.559.329c.469.117,1.039.257,1.039.888a.881.881,0,0,1-.77.849v.447a.076.076,0,0,1-.022.046.07.07,0,0,1-.046.021Z" transform="translate(-118 -16)"/></g></svg>