<svg width="453" height="453" fill="none" xmlns="http://www.w3.org/2000/svg"><g clip-path="url(#a)"><path d="M278.596 226.5h30.294" stroke="#000" stroke-miterlimit="10" stroke-linecap="round"/><path d="M384.768 226.5h30.294M226.5 275.057v30.294M226.5 381.229v30.294M37.94 226.5h30.294M144.111 226.5h30.295" stroke="#C6C6C6" stroke-miterlimit="10" stroke-linecap="round"/><path d="M226.5 37.94v30.294M222 65l4.5 4 4.5-4M226.5 144.111v30.295" stroke="#000" stroke-miterlimit="10" stroke-linecap="round"/><path d="M212.236 0h-4.246a.35.35 0 0 0-.354.354.35.35 0 0 0 .354.354h3.539v3.695a.35.35 0 0 0 .354.354.35.35 0 0 0 .353-.354V0Zm-11.325 0h-4.246a.35.35 0 0 0-.354.354.35.35 0 0 0 .354.354h4.246a.35.35 0 0 0 .354-.354.35.35 0 0 0-.354-.354Zm-11.325 0h-4.246a.35.35 0 0 0-.354.354.35.35 0 0 0 .354.354h4.246a.35.35 0 0 0 .354-.354.35.35 0 0 0-.354-.354Zm-11.325 0h-4.246a.35.35 0 0 0-.354.354.35.35 0 0 0 .354.354h4.246a.35.35 0 0 0 .354-.354.35.35 0 0 0-.354-.354Zm-11.325 0h-4.246a.35.35 0 0 0-.354.354.35.35 0 0 0 .354.354h4.246a.35.35 0 0 0 .354-.354.35.35 0 0 0-.354-.354Zm-11.325 0h-4.246a.35.35 0 0 0-.354.354.35.35 0 0 0 .354.354h4.246a.35.35 0 0 0 .354-.354.35.35 0 0 0-.354-.354Zm-11.325 0h-4.246a.35.35 0 0 0-.354.354.35.35 0 0 0 .354.354h4.246a.35.35 0 0 0 .354-.354.35.35 0 0 0-.354-.354Zm-11.325 0h-4.246a.35.35 0 0 0-.354.354.35.35 0 0 0 .354.354h4.246a.35.35 0 0 0 .354-.354.35.35 0 0 0-.354-.354Zm-11.325 0h-4.246a.35.35 0 0 0-.354.354.35.35 0 0 0 .354.354h4.246a.35.35 0 0 0 .354-.354.35.35 0 0 0-.354-.354Zm-10.928 0H110V3.935a.35.35 0 0 0 .354.354.35.35 0 0 0 .354-.354V0Zm-.354 10.66a.35.35 0 0 0-.354.354v4.246a.35.35 0 0 0 .354.354.35.35 0 0 0 .354-.354v-4.246a.35.35 0 0 0-.354-.354Zm0 11.325a.35.35 0 0 0-.354.354v4.246a.35.35 0 0 0 .354.354.35.35 0 0 0 .354-.354V22.34a.35.35 0 0 0-.354-.354Zm0 11.325a.35.35 0 0 0-.354.354v4.246a.35.35 0 0 0 .354.354.35.35 0 0 0 .354-.354v-4.246a.35.35 0 0 0-.354-.354Zm0 11.325a.35.35 0 0 0-.354.354v2.2h2.046a.35.35 0 0 0 .353-.353.35.35 0 0 0-.353-.354h-1.338v-1.493a.35.35 0 0 0-.354-.354Zm13.017 1.847h-4.247a.35.35 0 0 0-.354.354.35.35 0 0 0 .354.354h4.247a.35.35 0 0 0 .353-.354.35.35 0 0 0-.353-.354Zm11.325 0h-4.247a.35.35 0 0 0-.354.354.35.35 0 0 0 .354.354h4.247a.35.35 0 0 0 .353-.354.35.35 0 0 0-.353-.354Zm11.325 0h-4.247a.35.35 0 0 0-.354.354.35.35 0 0 0 .354.354h4.247a.35.35 0 0 0 .353-.354.35.35 0 0 0-.353-.354Zm11.325 0h-4.247a.35.35 0 0 0-.354.354.35.35 0 0 0 .354.354h4.247a.35.35 0 0 0 .353-.354.35.35 0 0 0-.353-.354Zm11.325 0h-4.247a.35.35 0 0 0-.354.354.35.35 0 0 0 .354.354h4.247a.35.35 0 0 0 .353-.354.35.35 0 0 0-.353-.354Zm11.325 0h-4.247a.35.35 0 0 0-.354.354.35.35 0 0 0 .354.354h4.247a.35.35 0 0 0 .353-.354.35.35 0 0 0-.353-.354Zm11.325 0h-4.247a.35.35 0 0 0-.354.354.35.35 0 0 0 .354.354h4.247a.35.35 0 0 0 .353-.354.35.35 0 0 0-.353-.354Zm11.325 0h-4.247a.35.35 0 0 0-.354.354.35.35 0 0 0 .354.354h4.247a.35.35 0 0 0 .353-.354.35.35 0 0 0-.353-.354Zm9.244-1.373a.35.35 0 0 0-.354.354v1.019h-1.812a.35.35 0 0 0-.354.354.35.35 0 0 0 .354.354h2.52v-1.727a.35.35 0 0 0-.354-.354Zm0-11.325a.35.35 0 0 0-.354.354v4.247a.35.35 0 0 0 .354.354.35.35 0 0 0 .354-.354v-4.247a.35.35 0 0 0-.354-.354Zm0-11.325a.35.35 0 0 0-.354.354v4.247a.35.35 0 0 0 .354.354.35.35 0 0 0 .354-.354v-4.247a.35.35 0 0 0-.354-.354Zm0-11.325a.35.35 0 0 0-.354.354v4.247a.35.35 0 0 0 .354.354.35.35 0 0 0 .354-.354v-4.247a.35.35 0 0 0-.354-.354Z" fill="#000"/><path d="M117.666 212.343v-86.509H94.075v86.509h23.591ZM102.244 55.054V0H78.653v55.054h23.591ZM86.21 212.343v-86.509H62.62v86.509h23.59ZM102 94H0v24h102V94ZM212.344 94.373H110.107v23.591h102.237V94.373ZM102.236 62.918H0v23.591h102.236V62.918ZM54.75 125.834H0v23.591h54.75v-23.591ZM212.344 125.834h-86.813v36.042h86.813v-36.042ZM54.75 157.291H0v55.054h54.75v-55.054ZM212.344 169.74h-43.41v42.603h43.41V169.74ZM161.071 169.74h-35.54v42.603h35.54V169.74ZM212.344 55.053h-43.41v31.455h43.41V55.053ZM161.077 55.053h-50.97v31.455h50.97V55.053ZM70.781 0H0v55.054h70.781V0ZM212.344 279.982h-43.41v47.19h43.41v-47.19ZM102.244 453.001v-55.054H78.653v55.054h23.591ZM102.236 358.627V240.656H78.645v117.971h23.591ZM212.344 335.029H110.107v23.592h102.237v-23.592ZM70.781 303.574H0v55.054h70.781v-55.054ZM102.236 366.49H0v23.592h102.236V366.49ZM212.343 366.49h-39.63v36.042h39.63V366.49ZM70.781 397.947H0v55.054h70.781v-55.054ZM212.343 410.396h-39.63V453h39.63v-42.604ZM133.699 366.49h-23.592v86.509h23.592V366.49ZM165.154 366.49h-23.592v86.509h23.592V366.49ZM212.344 240.656h-43.41v31.455h43.41v-31.455ZM161.077 240.656h-50.97v86.509h50.97v-86.509ZM70.781 240.656H0v55.054h70.781v-55.054ZM279.982 240.648v43.411h47.19v-43.411h-47.19ZM452.999 335.334H366.49v23.591h86.509v-23.591ZM327.165 350.764h-86.509v23.591h86.509v-23.591ZM452.999 366.795H366.49v23.591h86.509v-23.591ZM335.029 335.333V453h23.592V335.333h-23.592ZM366.49 398.251V453h23.592v-54.749H366.49ZM397.953 398.251V453h55.054v-54.749h-55.054ZM409.59 240.656v43.41H453v-43.41h-43.41ZM410.396 291.929v35.54H453v-35.54h-42.604ZM240.656 240.648v43.411h31.455v-43.411h-31.455ZM240.656 291.923v50.97h86.509v-50.97h-86.509ZM240.656 382.219V453h86.509v-70.781h-86.509ZM240.656 173.018h43.41v-47.19h-43.41v47.19ZM335.334 0v86.51h23.591V0h-23.591ZM350.756 157.29v55.054h23.591V157.29h-23.591ZM366.795 0v42.603h23.591V0h-23.591ZM350.764 117.971H453V94.379H350.764v23.592ZM240.656 117.971h102.237V94.379H240.656v23.592ZM350.764 149.426H453v-23.592H350.764v23.592ZM366.796 86.516H453V50.474h-86.204v36.042ZM240.656 86.516h86.813V50.474h-86.813v36.042ZM398.251 42.603H453V0h-54.749v42.603ZM240.656 42.603h43.41V0h-43.41v42.603ZM291.929 42.603h35.54V0h-35.54v42.603ZM240.656 212.344h43.41v-31.455h-43.41v31.455ZM291.923 212.344h50.97v-86.509h-50.97v86.509ZM382.219 212.344H453V157.29h-70.781v55.054Z" fill="#F8F8F8"/><path d="M401.824 241.364v85.398h-66.081v-85.398h66.081Zm.708-.708h-67.497v86.813h67.497v-86.813Z" fill="#000"/><path d="M368.777 255.98a.836.836 0 0 0 .644-.304c.553-.665 13.513-16.35 13.513-23.924 0-7.574-6.349-14.156-14.157-14.156-7.807 0-14.156 6.349-14.156 14.156s12.96 23.259 13.512 23.924a.839.839 0 0 0 .644.304Z" fill="#000"/><path d="M363.426 231.22a5.356 5.356 0 0 1 5.351-5.351c2.951 0 5.351 2.4 5.351 5.351 0 2.952-2.4 5.351-5.351 5.351a5.355 5.355 0 0 1-5.351-5.351Z" fill="#fff"/><path d="m306 231 4-4.5-4-4.5" stroke="#000" stroke-miterlimit="10" stroke-linecap="round"/><path d="m171 231 4-4.5-4-4.5" stroke="#C6C6C6" stroke-miterlimit="10" stroke-linecap="round"/><path d="m222 171 4.5 4 4.5-4" stroke="#000" stroke-miterlimit="10" stroke-linecap="round"/><path d="m222 302 4.5 4 4.5-4M412 231l4-4.5-4-4.5M222 408l4.5 4 4.5-4M65 231l4-4.5-4-4.5" stroke="#C6C6C6" stroke-miterlimit="10" stroke-linecap="round"/></g><defs><clipPath id="a"><path fill="#fff" d="M0 0h453v453H0z"/></clipPath></defs></svg>