<svg width="572" height="572" viewBox="0 0 572 572" fill="none" xmlns="http://www.w3.org/2000/svg">
<path d="M151.734 0.000534058L151.734 240.988H294.542V0.000534058H151.734Z" fill="#F8F8F8"/>
<path d="M303.465 0.000534058V240.988H446.272V0.000534058H303.465Z" fill="#F8F8F8"/>
<path d="M303.465 249.913V446.273H446.272V249.913H303.465Z" fill="#F8F8F8"/>
<path d="M339.167 303.318H312.391V321.169H339.167V303.318Z" fill="#C6C6C6"/>
<path d="M437.349 303.318H410.572V321.169H437.349V303.318Z" fill="#C6C6C6"/>
<path d="M404.62 303.318H377.844V321.169H404.62V303.318Z" fill="#C6C6C6"/>
<path d="M371.898 303.318H345.121V321.169H371.898V303.318Z" fill="#C6C6C6"/>
<path d="M339.167 327.119H312.391V344.97H339.167V327.119Z" fill="#C6C6C6"/>
<path d="M437.349 327.119H410.572V344.97H437.349V327.119Z" fill="#C6C6C6"/>
<path d="M404.62 327.119H377.844V344.97H404.62V327.119Z" fill="#C6C6C6"/>
<path d="M371.898 327.119H345.121V344.97H371.898V327.119Z" fill="#C6C6C6"/>
<path d="M339.167 350.914H312.391V368.765H339.167V350.914Z" fill="#C6C6C6"/>
<path d="M437.349 350.914H410.572V368.765H437.349V350.914Z" fill="#C6C6C6"/>
<path d="M404.62 350.914H377.844V368.765H404.62V350.914Z" fill="#C6C6C6"/>
<path d="M371.898 350.914H345.121V368.765H371.898V350.914Z" fill="#C6C6C6"/>
<path d="M339.167 375.021H312.391V392.872H339.167V375.021Z" fill="#C6C6C6"/>
<path d="M437.349 375.021H410.572V392.872H437.349V375.021Z" fill="#C6C6C6"/>
<path d="M404.62 375.021H377.844V392.872H404.62V375.021Z" fill="#C6C6C6"/>
<path d="M371.898 375.021H345.121V392.872H371.898V375.021Z" fill="#C6C6C6"/>
<path d="M151.734 249.913V446.273H294.542V249.913H151.734Z" fill="#F8F8F8"/>
<path d="M0 0.000534058L0 240.988H142.808L142.808 0.000534058H0Z" fill="#F8F8F8"/>
<path d="M0 249.913L0 446.273H142.808V249.913H0Z" fill="#F8F8F8"/>
<path d="M81.9082 151.964C80.3373 152.936 78.2042 152.615 76.4726 153.088C74.4733 153.633 73.8128 155.4 74.3484 157.292C73.0095 157.078 71.4119 156.284 70.0552 156.703C71.3851 157.738 72.7775 158.702 73.9021 159.961C71.403 161.264 69.3144 157.64 66.7974 158.479C68.7075 158.97 69.3947 160.871 70.6443 162.183C66.3244 162.754 64.1465 159.086 61.9062 156.114C65.4318 156.043 69.2073 155.4 71.9474 152.999C73.1345 151.955 74.0449 150.634 74.7143 149.197C75.4373 147.617 76.1067 145.859 78.2042 146.189C77.981 147.09 77.2581 147.751 77.1688 148.706C78.1863 147.724 80.1499 145.528 81.7297 146.706C82.1492 147.019 83.1132 148.215 82.051 148.206C81.3013 148.197 80.1856 149.232 80.4266 150.045C81.4709 149.375 82.6223 149.009 83.8361 149.456C83.0685 150.214 82.8543 151.383 81.9082 151.973" fill="#C6C6C6"/>
<path d="M49.045 179.975C52.0083 179.77 52.517 178.841 54.3646 178.288C56.0605 177.77 58.2561 179.198 59.8359 180.671C60.9338 181.689 61.1837 183.251 60.6481 184.571C60.0412 186.071 58.6578 187.356 58.5953 189.034C58.5864 189.445 58.6578 189.846 58.8095 190.221C59.0148 190.73 59.1665 190.677 59.6306 190.864C59.9787 190.998 60.2822 191.542 60.5767 191.801C60.8802 192.069 61.2194 192.238 61.6121 192.319C63.1651 192.649 65.6286 192.756 67.0388 191.899C68.6007 190.962 71.9032 189.918 72.6886 192.337C72.7332 192.462 72.76 192.587 72.7868 192.712C71.8139 192.756 70.8143 192.203 69.8414 192.515C69.5201 192.622 69.2255 193.006 69.4308 193.354C69.654 193.729 70.3501 193.72 70.725 193.729C71.8228 193.774 72.7689 193.604 73.5365 194.532C74.1524 195.282 75.0003 197.067 73.6704 197.594C73.724 196.326 71.3141 195.523 70.3323 195.469C70.1895 195.469 69.9039 195.452 69.8325 195.621C69.6897 195.96 70.368 196.148 70.5644 196.237C71.6354 196.728 72.644 198.576 72.4833 198.933C70.6268 198.933 69.4665 198.906 68.7793 198.522C68.1991 198.094 66.6193 196.514 65.5215 196.273C64.6825 196.085 63.8613 195.853 63.0134 195.907C61.4693 196.005 59.9609 196.621 58.4168 196.567C58.5774 195.818 59.354 194.8 60.193 194.791C58.3454 193.434 55.6767 195.112 53.7577 195.461C52.8651 195.612 50.848 195.443 50.848 194.506C52.1243 194.05 55.4892 192.355 54.9894 191.953C54.1772 191.292 53.356 190.926 52.2939 191.025C50.8569 191.158 49.7234 191.819 48.2774 191.917C48.1882 191.194 48.447 190.552 48.7059 189.9C49.0272 189.088 48.7951 188.302 48.6523 187.445C48.1168 184.277 46.5816 183.973 46.2781 182.492C46.1264 181.724 46.4299 180.296 49.0361 179.984L49.045 179.975Z" fill="#C6C6C6"/>
<path d="M62.8187 147.332C60.6677 147.332 58.6952 146.342 56.6423 145.851C56.2764 145.77 55.6159 145.797 55.3124 145.574C54.9732 145.324 55.1785 144.735 55.6069 144.789C56.7494 144.914 57.8472 145.271 58.9361 145.619C60.6588 146.172 62.5867 146.841 64.3807 146.208C64.7556 146.065 65.2197 145.636 65.6035 145.61C66.0319 145.583 66.2372 146.154 65.8802 146.395C64.9698 147.02 63.9166 147.332 62.8187 147.332Z" fill="#C6C6C6"/>
<path d="M17.8516 152.858C18.2443 154.17 24.5635 156.374 25.8577 154.018C26.2594 153.286 26.2772 153.072 26.4468 152.269C29.66 152.456 31.3112 154.464 31.6236 157.776C31.811 159.82 30.9363 161.301 29.8563 164.256C28.8477 167.022 26.9109 169.165 25.4114 171.664C25.0633 172.253 24.2243 173.261 23.6353 174.475C23.1444 175.609 23.1801 176.921 23.189 178.126C23.2158 180.866 25.8488 183.401 27.0359 184.249C27.4643 184.579 28.1426 184.829 28.8924 184.954C27.2233 187.364 27.6339 190.514 27.9641 192.63C28.339 194.986 30.5882 197.976 31.6593 198.574C32.7125 199.163 34.0334 199.859 33.962 201.243C33.8906 202.608 31.9538 201.966 31.1862 201.734C31.3647 202.421 31.8913 202.894 32.4804 203.242C32.9445 203.519 33.6764 203.724 33.8996 204.26C34.1941 204.938 34.7029 204.563 35.0956 205.072C35.524 205.634 35.8542 206.321 36.0774 206.982C36.6218 208.579 35.2652 209.972 35.7204 211.543C36.1577 213.069 37.9339 213.506 39.3262 213.274C39.1299 212.248 39.3798 211.445 39.6208 210.463C40.7722 211.221 41.5487 212.516 42.8964 212.98C43.3516 213.131 44.262 213.149 44.6994 212.792C45.0028 212.542 45.2528 212.176 45.2171 211.685C44.8243 211.587 44.4762 211.239 44.2085 210.9C43.9853 210.623 42.9143 209.365 43.1196 208.829C43.5658 207.66 45.8151 208.829 46.5916 208.838C47.2342 207.964 46.4131 206.58 45.1903 206.419C44.1103 206.321 43.0839 206.776 42.0039 206.464C41.3077 206.268 40.7811 205.795 40.2991 205.277C39.8618 204.804 39.3798 204.34 39.0674 203.769C38.8443 203.367 38.755 202.965 38.3266 202.742C37.9517 202.555 38.0321 202.1 38.041 201.734C38.041 201.243 37.5769 201.493 37.5144 201.18C37.4608 200.921 37.443 200.654 37.4519 200.395C37.4519 199.752 37.559 199.101 37.7911 198.503C38.0231 197.922 38.4248 197.342 39.0763 197.191C39.96 196.994 40.4866 197.637 41.2184 197.958C42.0664 198.333 41.7718 197.449 41.8611 196.896C41.9325 196.432 42.0842 195.995 42.227 195.548C42.4145 194.959 42.6108 194.691 43.0035 194.192C43.3695 193.727 44.0389 192.799 44.0657 192.835C44.6726 192.067 45.3599 191.576 45.8865 190.728C46.2881 189.952 46.5559 187.846 46.297 186.56C45.7347 184.454 44.3691 183.508 43.8425 181.821C43.2892 180.116 44.8333 178.956 46.297 178.608C48.4124 178.277 52.527 177.662 55.4724 175.011C57.1504 173.493 59.0962 170.7 60.0958 169.352C60.9527 168.37 62.8716 167.79 64.9602 169.423C62.8895 169.78 61.6042 171.253 60.078 172.529C61.9166 173.583 63.7106 172.869 65.4333 171.958C66.9327 171.164 68.6018 170.307 70.1548 171.494C69.1195 171.905 68.3965 172.458 68.0841 173.574C69.057 173.252 70.0566 173.324 71.0474 173.127C71.7168 173.002 72.7968 172.074 73.4216 172.726C74.0196 173.351 74.6979 173.243 75.519 173.315C75.9564 173.36 78.5269 174.395 79.1963 174.77C79.8122 175.127 81.0261 175.002 81.7669 175.859C82.5077 176.724 82.2935 174.029 81.5527 173.27C80.8208 172.503 79.5623 172.36 79.6248 172.529C79.1517 171.378 83.2842 171.333 83.1771 172.976C83.9893 172.744 83.8376 171.485 83.427 170.994C82.8201 170.271 81.7936 169.879 80.8654 169.825C80.5619 169.807 78.9196 169.807 79.3748 169.066C79.5801 168.727 81.5705 167.701 83.1235 168.397C83.3913 168.031 82.5077 167.308 81.5348 166.96C81.0885 166.799 79.7854 166.71 79.3659 166.897C78.8036 167.147 78.4109 167.46 77.8397 167.728C76.1795 168.504 74.7693 169.325 72.8771 168.861C70.9492 168.388 69.6014 167.058 67.9235 166.121C67.1291 165.675 66.308 165.273 65.5493 164.764C64.8442 164.291 64.0677 163.702 62.9163 163.702C63.9784 161.042 62.229 156.446 57.3557 155.848C57.4271 155.294 58.1411 154.982 58.9623 155.036C58.6231 154.446 55.3742 152.643 52.527 152.724C51.8487 152.706 51.4381 152.126 51.1436 151.572C50.8401 150.974 50.7419 149.966 51.5274 149.707C53.0179 149.234 54.1247 151.831 55.5438 150.992C56.2936 150.546 57.9359 149.653 57.7306 148.582C57.5521 147.627 55.1154 148.225 54.4728 148.279C53.0625 148.404 51.6166 148.511 50.9651 146.913C50.1975 145.021 52.1789 143.638 53.8301 143.37C54.6691 143.236 55.7848 143.2 56.5524 143.62C57.195 143.968 57.7573 144.441 58.3911 144.807C58.9534 145.128 59.8013 144.852 59.9441 144.173C60.1048 143.388 59.4621 142.602 58.8998 142.147C59.2747 141.888 59.8013 141.888 60.2297 141.853C59.8102 139.88 57.2307 139.728 55.642 139.925C54.9548 140.014 54.2586 141.076 53.6249 140.951C53.0804 140.853 52.5359 140.612 52.0183 140.416C51.447 140.184 50.7062 139.951 50.26 139.496C49.7155 138.952 50.6794 138.916 51.0186 139.086C51.9112 139.541 53.0447 139.273 54.0354 139.193C54.6067 139.148 55.1333 139.184 55.526 138.729C55.8384 138.372 55.999 137.899 55.5706 137.497C54.7673 136.729 52.9911 137.22 52.0272 137.345C51.2507 137.443 50.7509 137.399 50.0636 136.944C49.171 136.346 48.2785 136.131 47.2074 136.221C45.0475 136.399 43.0392 137.47 40.8347 137.256C41.4505 138.015 42.3877 138.398 43.1999 138.889C42.6644 139.827 40.6115 139.282 39.7904 139.336C38.9782 139.38 36.8807 139.755 36.2916 140.853C38.996 139.996 40.558 141.174 40.8079 141.424C41.2006 141.826 41.3166 142.352 41.272 142.897C39.7368 142.183 37.7911 142.549 36.4165 143.45C35.8364 143.825 35.3009 144.379 35.2116 145.11C35.9792 144.486 36.72 144.352 36.9878 144.459C37.0056 144.459 34.81 146.039 34.6761 148.948C36.5504 145.387 38.6568 145.075 39.4958 145.414C39.7457 145.521 40.79 145.887 40.5312 146.342C40.2813 146.771 39.4958 146.94 39.0763 147.092C38.4783 147.315 37.8357 147.52 37.3269 147.913C35.8989 149.002 35.6311 151.465 35.4169 153.099C35.3455 153.634 35.2919 154.161 35.2295 154.696C36.72 151.019 38.7015 149.448 40.3348 150.412C40.6204 150.555 41.7629 151.269 41.1292 151.644C40.3527 152.099 39.4958 152.429 38.7818 152.992C37.9607 153.634 37.916 154.366 37.8535 155.33C37.8 156.294 37.7018 160.248 37.675 160.578C37.5858 161.56 37.2823 162.462 36.836 163.345C37.8446 162.908 38.7818 162.265 39.353 161.265C39.7457 160.587 39.5315 159.507 39.7814 159.106C39.8528 158.989 41.1649 166.496 38.7818 172.628C37.1306 176.858 36.3094 177.554 36.2827 177.938C36.247 178.376 35.8275 178.849 35.3455 178.742C35.9613 178.965 35.0509 179.759 34.8367 179.911C34.5333 180.125 34.5154 180.491 34.212 180.857C33.4354 181.785 32.168 182.142 30.9988 182.16C29.6778 182.169 28.2944 181.741 27.3126 180.812C26.0808 179.652 25.9559 177.956 26.188 176.358C26.7949 172.253 29.6957 169.031 31.2041 165.273C31.8735 163.604 32.775 161.774 32.9802 159.971C33.6764 153.973 30.017 151.117 26.0005 151.215C26.0273 151.001 25.5632 150.457 25.3133 150.26C24.8224 149.877 24.1529 149.493 23.2425 149.484C21.752 149.466 18.5031 151.483 17.8694 152.822L17.8516 152.858Z" fill="#C6C6C6"/>
<path d="M364.367 151.962C365.938 152.935 368.071 152.613 369.803 153.086C371.802 153.631 372.463 155.398 371.927 157.29C373.266 157.076 374.864 156.282 376.22 156.701C374.89 157.736 373.498 158.7 372.374 159.959C374.873 161.262 376.961 157.638 379.478 158.477C377.568 158.968 376.881 160.869 375.631 162.181C379.951 162.753 382.129 159.084 384.369 156.112C380.844 156.041 377.068 155.398 374.328 152.997C373.141 151.953 372.231 150.632 371.561 149.195C370.838 147.615 370.169 145.857 368.071 146.187C368.295 147.088 369.018 147.749 369.107 148.704C368.089 147.722 366.126 145.526 364.546 146.705C364.126 147.017 363.162 148.213 364.225 148.204C364.974 148.195 366.09 149.23 365.849 150.043C364.805 149.373 363.653 149.007 362.439 149.454C363.207 150.212 363.421 151.381 364.367 151.971" fill="#C6C6C6"/>
<path d="M397.233 179.971C394.27 179.766 393.761 178.837 391.913 178.284C390.218 177.766 388.022 179.194 386.442 180.667C385.344 181.685 385.094 183.247 385.63 184.568C386.237 186.067 387.62 187.352 387.683 189.03C387.692 189.441 387.62 189.843 387.468 190.217C387.263 190.726 387.111 190.673 386.647 190.86C386.299 190.994 385.996 191.538 385.701 191.797C385.398 192.065 385.059 192.235 384.666 192.315C383.113 192.645 380.649 192.752 379.239 191.895C377.677 190.958 374.375 189.914 373.589 192.333C373.545 192.458 373.518 192.583 373.491 192.708C374.464 192.752 375.464 192.199 376.437 192.511C376.758 192.618 377.052 193.002 376.847 193.35C376.624 193.725 375.928 193.716 375.553 193.725C374.455 193.77 373.509 193.6 372.741 194.528C372.126 195.278 371.278 197.063 372.608 197.59C372.554 196.322 374.964 195.519 375.946 195.466C376.088 195.466 376.374 195.448 376.446 195.617C376.588 195.956 375.91 196.144 375.714 196.233C374.643 196.724 373.634 198.572 373.795 198.929C375.651 198.929 376.811 198.902 377.499 198.518C378.079 198.09 379.659 196.51 380.757 196.269C381.595 196.081 382.417 195.849 383.265 195.903C384.809 196.001 386.317 196.617 387.861 196.563C387.701 195.814 386.924 194.796 386.085 194.787C387.933 193.431 390.601 195.109 392.52 195.457C393.413 195.608 395.43 195.439 395.43 194.502C394.154 194.046 390.789 192.351 391.289 191.949C392.101 191.288 392.922 190.923 393.984 191.021C395.421 191.155 396.555 191.815 398.001 191.913C398.09 191.19 397.831 190.548 397.572 189.896C397.251 189.084 397.483 188.298 397.626 187.442C398.161 184.273 399.696 183.97 400 182.488C400.152 181.72 399.848 180.292 397.242 179.98L397.233 179.971Z" fill="#C6C6C6"/>
<path d="M383.459 147.33C385.61 147.33 387.583 146.34 389.636 145.849C390.001 145.768 390.662 145.795 390.965 145.572C391.305 145.322 391.099 144.733 390.671 144.787C389.528 144.912 388.431 145.269 387.342 145.617C385.619 146.17 383.691 146.839 381.897 146.206C381.522 146.063 381.058 145.635 380.674 145.608C380.246 145.581 380.041 146.152 380.398 146.393C381.308 147.018 382.361 147.33 383.459 147.33Z" fill="#C6C6C6"/>
<path d="M423.054 149.517C422.144 149.517 421.474 149.91 420.983 150.294C420.733 150.49 420.269 151.034 420.296 151.249C416.28 151.15 412.62 153.998 413.316 160.004C413.53 161.799 414.423 163.628 415.092 165.306C416.592 169.064 419.502 172.295 420.109 176.392C420.341 177.989 420.207 179.685 418.984 180.845C418.002 181.765 416.619 182.202 415.298 182.193C414.128 182.184 412.861 181.818 412.085 180.89C411.781 180.524 411.763 180.158 411.46 179.944C411.246 179.792 410.335 179.007 410.951 178.775C410.469 178.882 410.05 178.4 410.014 177.971C409.987 177.579 409.166 176.891 407.515 172.661C405.132 166.529 406.453 159.023 406.515 159.139C406.765 159.54 406.56 160.62 406.943 161.299C407.515 162.289 408.452 162.932 409.46 163.378C409.014 162.495 408.711 161.593 408.621 160.611C408.595 160.29 408.497 156.327 408.443 155.363C408.389 154.39 408.336 153.667 407.515 153.025C406.801 152.462 405.944 152.132 405.167 151.677C404.534 151.302 405.676 150.588 405.962 150.445C407.595 149.481 409.585 151.052 411.067 154.73C411.013 154.194 410.951 153.667 410.88 153.132C410.665 151.499 410.398 149.035 408.97 147.946C408.461 147.553 407.818 147.348 407.22 147.125C406.801 146.973 406.015 146.804 405.765 146.375C405.498 145.92 406.551 145.554 406.801 145.447C407.64 145.099 409.737 145.42 411.62 148.982C411.487 146.072 409.291 144.492 409.309 144.492C409.585 144.385 410.317 144.519 411.085 145.144C410.996 144.412 410.46 143.858 409.88 143.483C408.505 142.582 406.56 142.207 405.025 142.93C404.98 142.386 405.096 141.859 405.489 141.457C405.739 141.207 407.3 140.029 410.005 140.886C409.416 139.788 407.327 139.422 406.506 139.369C405.694 139.324 403.632 139.869 403.097 138.923C403.909 138.432 404.846 138.048 405.462 137.289C403.257 137.512 401.249 136.432 399.089 136.254C398.018 136.165 397.125 136.379 396.233 136.977C395.546 137.432 395.046 137.477 394.269 137.378C393.305 137.262 391.529 136.771 390.726 137.53C390.306 137.932 390.467 138.396 390.771 138.762C391.163 139.217 391.69 139.181 392.261 139.226C393.243 139.306 394.385 139.574 395.278 139.119C395.617 138.949 396.581 138.976 396.037 139.529C395.59 139.976 394.849 140.217 394.278 140.449C393.761 140.654 393.216 140.886 392.672 140.984C392.038 141.109 391.333 140.038 390.654 139.958C389.066 139.762 386.477 139.913 386.067 141.886C386.504 141.921 387.022 141.921 387.397 142.18C386.825 142.636 386.183 143.421 386.352 144.206C386.495 144.885 387.343 145.161 387.905 144.84C388.53 144.474 389.101 144.001 389.744 143.653C390.512 143.234 391.636 143.26 392.466 143.403C394.109 143.671 396.099 145.054 395.331 146.947C394.689 148.544 393.234 148.437 391.824 148.312C391.172 148.259 388.744 147.661 388.566 148.616C388.361 149.687 390.003 150.588 390.753 151.025C392.163 151.856 393.279 149.258 394.769 149.74C395.555 149.999 395.456 151.008 395.153 151.606C394.867 152.15 394.457 152.739 393.769 152.757C390.922 152.677 387.673 154.48 387.334 155.069C388.155 155.015 388.869 155.328 388.941 155.881C384.068 156.479 382.318 161.076 383.38 163.735C382.229 163.735 381.452 164.324 380.747 164.797C379.989 165.306 379.167 165.708 378.373 166.154C376.695 167.091 375.347 168.421 373.419 168.894C371.527 169.358 370.117 168.546 368.457 167.761C367.886 167.493 367.493 167.181 366.931 166.931C366.511 166.743 365.208 166.832 364.762 166.993C363.789 167.341 362.896 168.055 363.173 168.43C364.726 167.734 366.707 168.76 366.922 169.1C367.368 169.831 365.726 169.831 365.431 169.858C364.503 169.912 363.476 170.304 362.869 171.027C362.459 171.518 362.307 172.777 363.119 173.009C363.021 171.376 367.154 171.411 366.672 172.563C366.743 172.393 365.476 172.536 364.744 173.303C364.012 174.071 363.789 176.758 364.53 175.892C365.27 175.026 366.484 175.151 367.1 174.803C367.779 174.419 370.34 173.393 370.777 173.348C371.599 173.268 372.277 173.375 372.875 172.759C373.5 172.107 374.58 173.036 375.249 173.161C376.24 173.357 377.24 173.286 378.212 173.607C377.9 172.491 377.177 171.938 376.142 171.527C377.695 170.34 379.355 171.197 380.863 171.991C382.577 172.902 384.38 173.616 386.219 172.563C384.683 171.286 383.407 169.814 381.336 169.457C383.425 167.814 385.344 168.394 386.201 169.385C387.2 170.742 389.137 173.527 390.824 175.044C393.769 177.695 397.884 178.311 399.999 178.641C401.463 178.998 403.007 180.149 402.454 181.854C401.918 183.532 400.562 184.487 399.999 186.593C399.741 187.879 400.008 189.985 400.41 190.762C400.937 191.601 401.624 192.092 402.231 192.868C402.258 192.832 402.927 193.761 403.293 194.225C403.686 194.716 403.882 194.983 404.069 195.581C404.212 196.028 404.364 196.465 404.435 196.929C404.516 197.491 404.221 198.366 405.078 197.991C405.81 197.67 406.337 197.027 407.22 197.224C407.863 197.367 408.273 197.956 408.505 198.536C408.746 199.134 408.845 199.785 408.845 200.428C408.845 200.687 408.836 200.955 408.782 201.213C408.72 201.535 408.256 201.276 408.256 201.767C408.256 202.133 408.345 202.588 407.97 202.775C407.533 202.999 407.443 203.391 407.229 203.802C406.926 204.373 406.435 204.837 405.997 205.31C405.515 205.828 404.989 206.301 404.293 206.497C403.213 206.819 402.186 206.354 401.106 206.453C399.883 206.613 399.062 207.997 399.705 208.871C400.481 208.871 402.731 207.693 403.177 208.863C403.382 209.398 402.311 210.657 402.088 210.933C401.829 211.263 401.481 211.621 401.079 211.719C401.053 212.21 401.294 212.567 401.597 212.825C402.034 213.182 402.945 213.174 403.4 213.013C404.748 212.549 405.524 211.255 406.676 210.496C406.908 211.487 407.167 212.281 406.97 213.307C408.372 213.539 410.139 213.102 410.576 211.576C411.04 209.996 409.675 208.613 410.219 207.015C410.451 206.346 410.773 205.667 411.201 205.105C411.594 204.596 412.102 204.971 412.397 204.293C412.62 203.757 413.352 203.552 413.816 203.275C414.405 202.927 414.932 202.454 415.11 201.767C414.343 202.008 412.406 202.641 412.334 201.276C412.263 199.892 413.584 199.196 414.637 198.607C415.708 198.009 417.966 195.019 418.332 192.663C418.663 190.547 419.073 187.406 417.404 184.987C418.145 184.862 418.832 184.612 419.261 184.282C420.457 183.425 423.09 180.899 423.108 178.159C423.116 176.954 423.152 175.633 422.661 174.508C422.072 173.286 421.233 172.286 420.885 171.697C419.386 169.207 417.449 167.056 416.44 164.289C415.36 161.334 414.486 159.853 414.673 157.809C414.985 154.497 416.637 152.489 419.85 152.302C420.01 153.105 420.028 153.319 420.439 154.051C421.733 156.408 428.052 154.194 428.445 152.891C427.811 151.552 424.571 149.535 423.072 149.553L423.054 149.517Z" fill="#C6C6C6"/>
<path d="M138.925 181.261C138.925 184.939 137.524 188.08 134.712 190.678C131.919 193.293 126.813 194.578 119.405 194.578C117.156 194.578 114.683 194.516 111.988 194.409C109.292 194.302 106.9 194.239 104.785 194.239C102.67 194.239 100.34 194.302 97.8143 194.409C95.2884 194.516 92.8963 194.578 90.6382 194.578C90.5043 194.578 90.3794 194.4 90.2633 194.034C90.1473 193.668 90.0938 193.338 90.0938 193.079C90.0938 192.847 90.1473 192.543 90.2633 192.168C90.3883 191.802 90.5043 191.597 90.6382 191.561C93.3605 191.231 95.1456 190.651 95.9935 189.839C96.8325 189 97.2698 187.652 97.2698 185.76V155.476C97.2698 153.592 96.8325 152.236 95.9935 151.406C95.1456 150.576 93.3605 149.995 90.6382 149.683C90.5043 149.638 90.3794 149.424 90.2633 149.067C90.1473 148.701 90.0938 148.398 90.0938 148.166C90.0938 147.889 90.1473 147.568 90.2633 147.193C90.3883 146.827 90.5043 146.648 90.6382 146.648C92.8963 146.648 95.217 146.711 97.609 146.818C100.001 146.943 102.25 146.997 104.375 146.997C106.499 146.997 108.721 146.934 111.095 146.818C113.478 146.711 115.781 146.648 118.03 146.648C124.43 146.648 129.071 147.648 131.963 149.647C134.864 151.656 136.328 154.244 136.328 157.413C136.328 160.037 135.176 162.357 132.865 164.383C130.571 166.401 127.215 167.739 122.797 168.382C128.045 168.614 132.052 170.06 134.81 172.693C137.559 175.344 138.943 178.209 138.943 181.279L138.925 181.261ZM122.029 158.287C122.029 155.351 121.485 153.227 120.369 151.932C119.262 150.647 117.468 150.004 114.987 150.004H114.157C113.193 150.004 112.407 150.21 111.809 150.62C111.211 151.049 110.926 151.897 110.926 153.182V167.115H114.567C117.236 167.115 119.146 166.409 120.298 165.017C121.449 163.607 122.02 161.375 122.02 158.287H122.029ZM124.716 180.574C124.716 177.254 124.002 174.746 122.538 173.005C121.092 171.283 118.941 170.417 116.085 170.417H110.917V186.84C110.917 188.357 111.319 189.464 112.149 190.16C112.988 190.856 114.103 191.195 115.522 191.195C117.745 191.195 119.824 190.356 121.77 188.678C123.743 187 124.716 184.296 124.716 180.574Z" fill="#C6C6C6"/>
<path d="M190.603 178.432C190.282 181.02 189.988 183.743 189.684 186.608C189.381 189.491 189.158 192.133 189.033 194.578C186.141 194.498 182.499 194.409 178.126 194.346C173.761 194.275 170.244 194.239 167.567 194.239C164.889 194.239 161.105 194.284 156.187 194.382C151.269 194.462 147.583 194.525 145.146 194.578C145.012 194.578 144.887 194.4 144.771 194.034C144.664 193.668 144.602 193.338 144.602 193.079C144.602 192.847 144.664 192.543 144.771 192.168C144.896 191.802 145.012 191.597 145.146 191.561C147.868 191.231 149.653 190.651 150.492 189.839C151.358 189 151.778 187.652 151.778 185.76V155.476C151.778 153.592 151.349 152.236 150.492 151.406C149.653 150.576 147.868 149.995 145.146 149.683C145.012 149.638 144.887 149.424 144.771 149.067C144.664 148.701 144.602 148.398 144.602 148.166C144.602 147.889 144.664 147.568 144.771 147.193C144.896 146.827 145.012 146.648 145.146 146.648C147.592 146.693 151.081 146.756 155.642 146.854C160.194 146.952 163.943 146.997 166.888 146.997C169.361 146.997 172.886 146.961 177.447 146.889C181.99 146.818 185.686 146.747 188.479 146.648C188.381 148.532 188.426 150.968 188.586 153.958C188.747 156.948 188.863 159.644 188.961 162.036C188.961 162.214 188.792 162.411 188.452 162.616C188.095 162.821 187.622 162.92 187.033 162.92C186.721 162.92 186.426 162.884 186.212 162.786C185.98 162.688 185.864 162.607 185.864 162.509C185.498 159.617 184.302 156.859 182.24 154.271C180.187 151.673 177.304 150.37 173.583 150.37H169.45C168.531 150.37 167.629 150.602 166.755 151.067C165.88 151.513 165.443 152.646 165.443 154.44V168.721H167.79C170.102 168.721 171.94 168.025 173.351 166.641C174.752 165.267 175.564 163.446 175.796 161.188C175.796 161.054 175.992 160.938 176.376 160.813C176.778 160.706 177.081 160.644 177.313 160.644C177.644 160.644 177.965 160.706 178.304 160.813C178.652 160.938 178.822 161.054 178.822 161.188C178.822 162.893 178.759 164.482 178.652 165.954C178.545 167.436 178.483 168.944 178.483 170.506C178.483 172.068 178.545 173.63 178.652 175.023C178.759 176.433 178.822 177.959 178.822 179.61C178.822 179.744 178.652 179.878 178.304 179.985C177.965 180.101 177.635 180.155 177.313 180.155C177.081 180.155 176.787 180.101 176.412 179.985C176.046 179.878 175.841 179.744 175.796 179.61C175.519 177.218 174.752 175.371 173.484 174.059C172.226 172.747 170.325 172.095 167.79 172.095H165.443V186.795C165.443 188.446 165.88 189.544 166.755 190.08C167.629 190.597 168.531 190.865 169.45 190.865H173.029C176.528 190.865 179.625 189.598 182.347 187.072C185.052 184.537 186.757 181.44 187.453 177.754C187.453 177.656 187.56 177.584 187.765 177.54C187.97 177.495 188.211 177.477 188.479 177.477C188.988 177.477 189.488 177.566 189.961 177.754C190.461 177.932 190.666 178.155 190.621 178.432H190.603Z" fill="#C6C6C6"/>
<path d="M242.702 176.782C242.371 179.361 242.068 182.512 241.764 186.234C241.461 189.965 241.265 192.741 241.184 194.579C238.284 194.499 234.678 194.41 230.349 194.347C226.029 194.276 222.503 194.24 219.79 194.24C216.853 194.24 213.051 194.285 208.41 194.383C203.76 194.463 200.288 194.526 197.985 194.579C197.851 194.579 197.717 194.41 197.61 194.071C197.503 193.731 197.432 193.392 197.432 193.071C197.432 192.839 197.503 192.535 197.61 192.161C197.717 191.795 197.851 191.589 197.985 191.554C200.663 191.223 202.421 190.643 203.269 189.831C204.117 188.992 204.545 187.644 204.545 185.752V155.468C204.545 153.585 204.117 152.228 203.269 151.398C202.421 150.568 200.654 149.988 197.985 149.675C197.851 149.631 197.717 149.416 197.61 149.059C197.503 148.693 197.432 148.39 197.432 148.158C197.432 147.828 197.503 147.497 197.61 147.149C197.717 146.81 197.851 146.641 197.985 146.641C200.199 146.641 202.466 146.703 204.786 146.81C207.107 146.935 209.303 146.989 211.373 146.989C213.444 146.989 215.702 146.926 217.996 146.81C220.308 146.703 222.575 146.641 224.833 146.641C224.967 146.641 225.083 146.819 225.208 147.185C225.315 147.56 225.377 147.881 225.377 148.158C225.377 148.39 225.315 148.693 225.208 149.095C225.083 149.488 224.967 149.675 224.833 149.675C222.164 149.952 220.388 150.523 219.513 151.398C218.639 152.273 218.21 153.62 218.21 155.468V186.796C218.21 188.448 218.647 189.545 219.549 190.081C220.45 190.599 221.343 190.866 222.271 190.866H226.207C229.429 190.866 232.295 189.349 234.794 186.314C237.311 183.28 238.899 179.879 239.587 176.095C239.587 176.014 239.667 175.934 239.828 175.889C239.988 175.845 240.229 175.818 240.542 175.818C241.05 175.818 241.55 175.916 242.032 176.095C242.514 176.291 242.737 176.505 242.693 176.791L242.702 176.782Z" fill="#C6C6C6"/>
<path d="M301.136 173.372C301.136 173.604 301.064 173.908 300.957 174.309C300.832 174.702 300.716 174.889 300.583 174.889C298.369 175.104 296.852 175.71 296.031 176.683C295.209 177.656 294.79 178.995 294.79 180.691V187.662C294.79 188.813 294.835 189.643 294.959 190.152C295.067 190.661 295.281 191.205 295.54 191.812C292.782 192.767 289.613 193.66 286.016 194.472C282.437 195.275 278.715 195.677 274.841 195.677C270.388 195.677 266.398 194.981 262.917 193.615C259.418 192.232 256.517 190.375 254.215 188.028C251.965 185.778 250.252 183.154 249.109 180.155C247.958 177.165 247.387 174.068 247.387 170.837C247.387 167.383 248.02 164.197 249.279 161.216C250.546 158.252 252.465 155.557 255.036 153.111C257.571 150.764 260.757 148.916 264.595 147.56C268.433 146.203 272.699 145.516 277.385 145.516C280.054 145.516 282.839 145.899 285.739 146.694C288.64 147.47 291.148 147.863 293.255 147.863C293.255 149.746 293.299 152.174 293.389 155.155C293.487 158.118 293.558 160.609 293.594 162.635C293.594 162.769 293.398 162.894 293.014 163.01C292.621 163.117 292.264 163.179 291.943 163.179C291.621 163.179 291.336 163.135 291.077 163.045C290.827 162.956 290.657 162.813 290.568 162.635C289.497 158.824 287.605 155.575 284.874 152.906C282.125 150.237 278.858 148.898 275.038 148.898C270.905 148.898 267.63 150.951 265.211 155.048C262.792 159.145 261.587 164.411 261.587 170.837C261.587 177.264 262.765 182.19 265.095 186.26C267.451 190.33 270.691 192.357 274.824 192.357C277.644 192.357 279.536 191.991 280.518 191.25C281.5 190.518 282 189.42 282 187.938V179.718C282 178.147 281.589 177.049 280.759 176.398C279.929 175.755 278.099 175.264 275.243 174.952C275.1 174.952 274.975 174.755 274.85 174.39C274.743 174.024 274.681 173.675 274.681 173.354C274.681 173.033 274.743 172.694 274.85 172.355C274.975 172.006 275.091 171.828 275.243 171.828C277.492 171.828 279.465 171.899 281.17 172.042C282.874 172.203 284.758 172.265 286.828 172.265C288.899 172.265 291.184 172.203 293.585 172.042C295.977 171.899 298.298 171.828 300.556 171.828C300.69 171.828 300.815 172.006 300.931 172.372C301.038 172.747 301.109 173.069 301.109 173.345L301.136 173.372Z" fill="#C6C6C6"/>
<path d="M356.189 193.07C356.189 193.338 356.126 193.668 356.01 194.025C355.903 194.391 355.778 194.569 355.635 194.569C353.44 194.569 351.199 194.507 348.959 194.4C346.71 194.293 344.63 194.23 342.747 194.23C340.632 194.23 338.374 194.293 335.955 194.4C333.554 194.507 331.206 194.569 328.948 194.569C328.814 194.569 328.689 194.4 328.573 194.061C328.466 193.722 328.404 193.382 328.404 193.061C328.404 192.829 328.439 192.526 328.511 192.151C328.573 191.785 328.68 191.579 328.814 191.544C331.028 191.401 332.483 191.115 333.197 190.669C333.911 190.232 334.268 189.562 334.268 188.643C334.268 188.277 334.179 187.804 334.027 187.26C333.866 186.715 333.697 186.215 333.518 185.742L331.635 180.922H317.14L315.462 184.921C315.185 185.564 314.98 186.171 314.81 186.76C314.65 187.331 314.569 187.813 314.569 188.241C314.569 189.205 314.837 189.982 315.373 190.562C315.89 191.133 317.363 191.463 319.746 191.562C319.889 191.562 319.978 191.758 320.023 192.142C320.067 192.534 320.094 192.847 320.094 193.079C320.094 193.391 320.023 193.739 319.916 194.079C319.809 194.418 319.675 194.587 319.541 194.587C317.559 194.587 316.033 194.525 314.926 194.418C313.82 194.311 312.356 194.248 310.517 194.248C309 194.248 307.661 194.311 306.51 194.418C305.367 194.525 304.019 194.587 302.457 194.587C302.324 194.587 302.199 194.409 302.118 194.007C302.02 193.614 301.984 193.302 301.984 193.088C301.984 192.856 302.083 192.552 302.288 192.177C302.493 191.811 302.663 191.606 302.797 191.571C304.778 191.374 306.322 190.794 307.429 189.776C308.536 188.768 309.66 187.072 310.821 184.662L327.922 146.095C327.975 145.961 328.216 145.836 328.672 145.72C329.136 145.613 329.573 145.551 329.993 145.551C330.412 145.551 330.84 145.613 331.305 145.72C331.751 145.845 332.01 145.961 332.054 146.095L347.37 184.662C348.2 186.974 349.182 188.634 350.334 189.669C351.485 190.705 353.217 191.347 355.51 191.579C355.644 191.579 355.805 191.776 355.957 192.16C356.117 192.552 356.198 192.865 356.198 193.097L356.189 193.07ZM330.305 177.611L324.494 162.429L318.434 177.611H330.305Z" fill="#C6C6C6"/>
<path d="M35.7022 303.318H8.92578V321.169H35.7022V303.318Z" fill="#C6C6C6"/>
<path d="M133.882 303.318H107.105V321.169H133.882V303.318Z" fill="#C6C6C6"/>
<path d="M101.151 303.318H74.375V321.169H101.151V303.318Z" fill="#C6C6C6"/>
<path d="M68.4307 303.318H41.6543V321.169H68.4307V303.318Z" fill="#C6C6C6"/>
<path d="M35.7022 327.119H8.92578V344.97H35.7022V327.119Z" fill="#C6C6C6"/>
<path d="M133.882 327.119H107.105V344.97H133.882V327.119Z" fill="#C6C6C6"/>
<path d="M101.151 327.119H74.375V344.97H101.151V327.119Z" fill="#C6C6C6"/>
<path d="M68.4307 327.119H41.6543V344.97H68.4307V327.119Z" fill="#C6C6C6"/>
<path d="M35.7022 350.914H8.92578V368.765H35.7022V350.914Z" fill="#C6C6C6"/>
<path d="M133.882 350.914H107.105V368.765H133.882V350.914Z" fill="#C6C6C6"/>
<path d="M101.151 350.914H74.375V368.765H101.151V350.914Z" fill="#C6C6C6"/>
<path d="M68.4307 350.914H41.6543V368.765H68.4307V350.914Z" fill="#C6C6C6"/>
<path d="M35.7022 375.021H8.92578V392.872H35.7022V375.021Z" fill="#C6C6C6"/>
<path d="M133.882 375.021H107.105V392.872H133.882V375.021Z" fill="#C6C6C6"/>
<path d="M101.151 375.021H74.375V392.872H101.151V375.021Z" fill="#C6C6C6"/>
<path d="M68.4307 375.021H41.6543V392.872H68.4307V375.021Z" fill="#C6C6C6"/>
<path d="M397.434 430.559L389.422 441.285L563.068 571L571.08 560.274L397.434 430.559Z" stroke="black" stroke-miterlimit="10"/>
<path d="M395.312 433.508L381.011 422.825M391.573 438.513L377.272 427.83" stroke="black" stroke-miterlimit="10"/>
<path d="M275.825 477.461C347.04 477.461 404.771 419.73 404.771 348.515C404.771 277.3 347.04 219.568 275.825 219.568C204.61 219.568 146.879 277.3 146.879 348.515C146.879 419.73 204.61 477.461 275.825 477.461Z" fill="white" stroke="black" stroke-miterlimit="10"/>
<path d="M275.796 473.472C344.808 473.472 400.753 417.527 400.753 348.515C400.753 279.504 344.808 223.559 275.796 223.559C206.785 223.559 150.84 279.504 150.84 348.515C150.84 417.527 206.785 473.472 275.796 473.472Z" fill="#F8F8F8" stroke="black" stroke-miterlimit="10"/>
<path d="M283.853 434.136V389.678H267.698V434.136H209.762V380.788H199.694C196.919 380.788 194.42 379.137 193.34 376.566C192.26 374.005 192.813 371.059 194.759 369.069L270.536 291.355C271.848 290.016 273.597 289.275 275.472 289.275C277.346 289.275 279.051 289.989 280.345 291.301L301.632 312.598V302.11H332.898V343.971L356.363 369.194C358.229 371.202 358.737 374.13 357.64 376.647C356.542 379.164 354.061 380.788 351.311 380.788H341.788V434.136H283.853Z" fill="white"/>
<path d="M353.398 371.761L328.916 345.449V305.882H305.201V321.716L277.469 293.967C276.237 292.735 274.247 292.753 273.033 293.993L197.256 371.707C195.328 373.68 196.729 377.009 199.487 377.009H213.331V430.357H263.715V385.899H287.421V430.357H337.805V377.009H351.104C353.827 377.009 355.246 373.76 353.389 371.761H353.398Z" stroke="#C62025" stroke-miterlimit="10"/>
<path d="M275.312 290.057V240.682" stroke="#C6C6C6" stroke-miterlimit="10"/>
<path d="M275.354 242.021C276.094 242.021 276.693 241.422 276.693 240.683C276.693 239.943 276.094 239.344 275.354 239.344C274.615 239.344 274.016 239.943 274.016 240.683C274.016 241.422 274.615 242.021 275.354 242.021Z" fill="#C6C6C6"/>
<path d="M242.981 347.843L239.926 354.863L236.897 347.843H235.064L239.042 356.943H240.706L244.671 347.843H242.981ZM250.561 357.073C253.382 357.073 255.462 355.097 255.462 352.393C255.462 349.689 253.382 347.713 250.561 347.713C247.74 347.713 245.66 349.702 245.66 352.393C245.66 355.084 247.74 357.073 250.561 357.073ZM250.561 355.591C248.728 355.591 247.363 354.252 247.363 352.393C247.363 350.534 248.728 349.195 250.561 349.195C252.394 349.195 253.759 350.534 253.759 352.393C253.759 354.252 252.394 355.591 250.561 355.591ZM258.033 356.943H264.481V355.513H259.723V347.843H258.033V356.943ZM272.578 347.843L269.523 354.863L266.494 347.843H264.661L268.639 356.943H270.303L274.268 347.843H272.578ZM277.698 355.526V353.017H282.092V351.626H277.698V349.26H282.651V347.843H276.008V356.943H282.833V355.526H277.698ZM295.455 356.943L295.442 347.843H294.051L290.502 353.875L286.888 347.843H285.497V356.943H287.109V350.989L290.099 355.903H290.853L293.843 350.911L293.856 356.943H295.455ZM302.944 357.073C305.765 357.073 307.845 355.097 307.845 352.393C307.845 349.689 305.765 347.713 302.944 347.713C300.123 347.713 298.043 349.702 298.043 352.393C298.043 355.084 300.123 357.073 302.944 357.073ZM302.944 355.591C301.111 355.591 299.746 354.252 299.746 352.393C299.746 350.534 301.111 349.195 302.944 349.195C304.777 349.195 306.142 350.534 306.142 352.393C306.142 354.252 304.777 355.591 302.944 355.591ZM313.237 357.073C315.733 357.073 316.916 355.825 316.916 354.369C316.916 351.028 311.521 352.289 311.521 350.352C311.521 349.663 312.093 349.117 313.497 349.117C314.29 349.117 315.187 349.351 316.006 349.832L316.539 348.519C315.746 347.999 314.602 347.713 313.51 347.713C311.014 347.713 309.844 348.961 309.844 350.43C309.844 353.81 315.252 352.523 315.252 354.486C315.252 355.162 314.654 355.669 313.237 355.669C312.119 355.669 310.962 355.253 310.234 354.668L309.649 355.981C310.403 356.631 311.82 357.073 313.237 357.073ZM249.806 363.843H246.062V372.943H247.752V370.317H249.806C252.198 370.317 253.68 369.082 253.68 367.08C253.68 365.065 252.198 363.843 249.806 363.843ZM249.728 368.887H247.752V365.273H249.728C251.21 365.273 251.977 365.936 251.977 367.08C251.977 368.224 251.21 368.887 249.728 368.887ZM263.922 372.943L261.829 369.953C263.064 369.472 263.766 368.458 263.766 367.08C263.766 365.065 262.284 363.843 259.892 363.843H256.148V372.943H257.838V370.291H259.892C260.009 370.291 260.126 370.291 260.243 370.278L262.102 372.943H263.922ZM262.063 367.08C262.063 368.224 261.296 368.9 259.814 368.9H257.838V365.273H259.814C261.296 365.273 262.063 365.936 262.063 367.08ZM270.687 373.073C273.508 373.073 275.588 371.097 275.588 368.393C275.588 365.689 273.508 363.713 270.687 363.713C267.866 363.713 265.786 365.702 265.786 368.393C265.786 371.084 267.866 373.073 270.687 373.073ZM270.687 371.591C268.854 371.591 267.489 370.252 267.489 368.393C267.489 366.534 268.854 365.195 270.687 365.195C272.52 365.195 273.885 366.534 273.885 368.393C273.885 370.252 272.52 371.591 270.687 371.591ZM284.569 363.843V370.005L279.551 363.843H278.16V372.943H279.837V366.781L284.855 372.943H286.246V363.843H284.569ZM291.31 372.943H293V365.273H296.016V363.843H288.294V365.273H291.31V372.943ZM302.189 373.073C305.01 373.073 307.09 371.097 307.09 368.393C307.09 365.689 305.01 363.713 302.189 363.713C299.368 363.713 297.288 365.702 297.288 368.393C297.288 371.084 299.368 373.073 302.189 373.073ZM302.189 371.591C300.356 371.591 298.991 370.252 298.991 368.393C298.991 366.534 300.356 365.195 302.189 365.195C304.022 365.195 305.387 366.534 305.387 368.393C305.387 370.252 304.022 371.591 302.189 371.591Z" fill="#C6C6C6"/>
</svg>
