<svg width="177" height="54" viewBox="0 0 177 54" fill="none" xmlns="http://www.w3.org/2000/svg">
<path d="M33.4858 8.87318C32.6653 9.4217 31.5505 9.24146 30.6451 9.50939C29.5998 9.81824 29.2532 10.813 29.5367 11.8818C28.8362 11.7629 28.0022 11.3109 27.29 11.5476C27.985 12.1322 28.7125 12.6778 29.3029 13.3861C27.994 14.1188 26.9027 12.0766 25.5876 12.5521C26.5805 12.8307 26.947 13.9034 27.5996 14.64C25.3429 14.9644 24.2029 12.8931 23.0312 11.2134C24.8745 11.1715 26.8477 10.813 28.2793 9.4597C28.8934 8.86122 29.3852 8.13124 29.7235 7.31626C30.1035 6.42673 30.4529 5.43198 31.5487 5.62099C31.4322 6.1286 31.054 6.50468 31.0071 7.04054C31.5369 6.48519 32.5651 5.25076 33.391 5.91133C33.6085 6.0867 34.1131 6.76189 33.5571 6.75409C33.1644 6.74922 32.5804 7.33867 32.7086 7.79269C33.2502 7.41661 33.8558 7.20811 34.4904 7.45948C34.0896 7.87843 33.9777 8.53705 33.4858 8.87318Z" fill="#C62025"/>
<path d="M16.3081 24.6762C17.858 24.5593 18.1243 24.039 19.0883 23.7214C19.9747 23.4291 21.1238 24.2338 21.9497 25.0678C22.2193 25.3449 22.4043 25.7039 22.4803 26.0973C22.5562 26.4906 22.5195 26.8995 22.3748 27.2697C22.0598 28.1135 21.3332 28.8384 21.3025 29.7854C21.2967 30.0155 21.3354 30.2445 21.4162 30.4576C21.5236 30.7499 21.6031 30.7148 21.8477 30.8201C22.0282 30.8961 22.1889 31.2039 22.3405 31.3481C22.4941 31.4953 22.6809 31.5961 22.8821 31.6404C23.6945 31.8275 24.9799 31.885 25.7183 31.4056C26.5379 30.8775 28.2619 30.2891 28.6726 31.6521C28.6934 31.7213 28.7087 31.7934 28.7232 31.8645C28.2159 31.8889 27.6905 31.5781 27.1887 31.7515C27.019 31.8109 26.8664 32.0282 26.9729 32.225C27.0795 32.4218 27.4522 32.4286 27.6481 32.4384C28.2231 32.4637 28.716 32.3702 29.1194 32.8924C29.4435 33.3172 29.8858 34.3246 29.1908 34.6208C29.2169 33.9047 27.9577 33.4516 27.4468 33.4195C27.3701 33.4195 27.2239 33.4088 27.1851 33.5042C27.1092 33.6991 27.464 33.8014 27.5669 33.853C28.1256 34.1317 28.6546 35.1722 28.5715 35.3729C27.6003 35.3729 26.9955 35.3554 26.6335 35.1401C26.3312 34.8994 25.5034 34.0079 24.932 33.8735C24.4934 33.7683 24.0655 33.6367 23.6196 33.6669C22.8135 33.7205 22.0246 34.0722 21.2158 34.0411C21.2998 33.6192 21.706 33.0424 22.1447 33.0395C21.1806 32.2718 19.7833 33.2227 18.7796 33.4156C18.3138 33.5013 17.2577 33.4039 17.2577 32.8748C17.923 32.6176 19.6822 31.6589 19.4241 31.4339C18.998 31.0636 18.5693 30.8493 18.0141 30.9087C17.2622 30.9837 16.6683 31.3569 15.9155 31.4144C15.8676 31.0081 16.0057 30.6437 16.1411 30.2754C16.3108 29.8185 16.1872 29.3762 16.1113 28.891C15.8315 27.1031 15.0282 26.9297 14.8702 26.0938C14.7853 25.6553 14.9451 24.8525 16.3081 24.6762Z" fill="#C62025"/>
<path d="M23.5051 6.25621C22.3813 6.25621 21.3487 5.69501 20.2754 5.42026C20.0841 5.37252 19.7338 5.38909 19.5822 5.26535C19.543 5.23328 19.5145 5.18839 19.501 5.13738C19.4874 5.08638 19.4896 5.03201 19.5071 4.98242C19.5245 4.93283 19.5564 4.89069 19.598 4.86231C19.6395 4.83392 19.6884 4.82082 19.7374 4.82497C20.3332 4.89317 20.9109 5.09582 21.4759 5.29263C22.3786 5.60538 23.3842 5.9834 24.322 5.62292C24.5179 5.544 24.7598 5.29945 24.962 5.28484C25.0109 5.28191 25.0593 5.29615 25.1001 5.32543C25.1408 5.35472 25.1717 5.39746 25.1881 5.44727C25.2044 5.49708 25.2054 5.55127 25.1909 5.60173C25.1763 5.65219 25.147 5.6962 25.1073 5.72716C24.6355 6.07533 24.0766 6.25989 23.5051 6.25621Z" fill="#C62025"/>
<path d="M0 9.37453C0.204902 10.114 3.50861 11.3601 4.18379 10.0312C4.39501 9.61908 4.40494 9.49729 4.49069 9.04522C6.16872 9.14947 7.03346 10.2816 7.19864 12.1522C7.29794 13.3058 6.83758 14.1417 6.27523 15.8097C5.74899 17.3686 4.73531 18.5816 3.95361 19.9885C3.77308 20.3207 3.33078 20.8877 3.02388 21.5766C2.76663 22.2137 2.78468 22.9562 2.7919 23.6382C2.79822 25.1844 4.17566 26.6127 4.7994 27.092C5.02416 27.2781 5.3798 27.4174 5.76884 27.4886C4.89508 28.8526 5.10901 30.6248 5.28412 31.8173C5.47909 33.1463 6.65615 34.8318 7.2176 35.1699C7.77905 35.5079 8.45875 35.8928 8.41993 36.6761C8.38112 37.4595 7.37105 37.0863 6.96757 36.9528C7.05783 37.3425 7.33765 37.6075 7.64546 37.8063C7.88556 37.9602 8.26919 38.0791 8.38653 38.3792C8.53998 38.7621 8.80536 38.5526 9.01207 38.8391C9.23509 39.1671 9.40873 39.5311 9.52658 39.9176C9.81363 40.8178 9.10053 41.6031 9.34154 42.4926C9.57081 43.3549 10.496 43.6014 11.2263 43.4669C11.1225 42.8882 11.257 42.4361 11.3806 41.8788C11.9836 42.3066 12.388 43.0392 13.0957 43.3003C13.334 43.388 13.8079 43.3978 14.038 43.1941C14.1269 43.1222 14.1981 43.0278 14.2453 42.9193C14.2925 42.8107 14.3143 42.6913 14.3088 42.5716C14.1021 42.516 13.9198 42.3173 13.7835 42.1302C13.6688 41.9724 13.1083 41.2621 13.2166 40.9611C13.4513 40.3024 14.6257 40.9611 15.0328 40.9669C15.3667 40.4749 14.9425 39.6935 14.3007 39.6029C13.7365 39.5474 13.2004 39.8055 12.6362 39.6263C12.2752 39.5133 11.9962 39.2483 11.7444 38.954C11.5169 38.6871 11.2615 38.425 11.1008 38.1025C10.9862 37.8735 10.9383 37.6485 10.7118 37.5238C10.5159 37.4176 10.5601 37.1594 10.5619 36.9538C10.5619 36.6771 10.3209 36.8203 10.2911 36.6401C10.266 36.4943 10.2548 36.346 10.2577 36.1977C10.2546 35.8314 10.3158 35.4677 10.4383 35.126C10.5583 34.7996 10.7704 34.4694 11.108 34.3865C11.5693 34.2764 11.8455 34.6408 12.2273 34.822C12.6714 35.0344 12.518 34.5376 12.5622 34.2209C12.609 33.9624 12.6727 33.7078 12.7527 33.459C12.8501 33.1248 12.9549 32.9719 13.1579 32.6952C13.3475 32.436 13.6995 31.9109 13.7113 31.9304C14.0281 31.4948 14.3874 31.2181 14.6609 30.7427C14.8703 30.3052 15.0093 29.1185 14.8757 28.3927C14.5796 27.2041 13.8692 26.6682 13.5912 25.7192C13.2997 24.7557 14.1075 24.1048 14.8739 23.9041C15.9787 23.7171 18.1298 23.3702 19.6679 21.8747C20.5471 21.0202 21.5634 19.4448 22.0843 18.681C22.5311 18.1266 23.5339 17.7992 24.627 18.7238C23.5439 18.9275 22.8741 19.7566 22.0734 20.4776C23.0339 21.0719 23.9744 20.6724 24.8717 20.1551C25.657 19.7049 26.5271 19.2217 27.3386 19.892C26.797 20.1249 26.4179 20.4337 26.2554 21.0612C26.7636 20.8819 27.289 20.9179 27.8053 20.8088C28.1537 20.7367 28.7179 20.2135 29.0446 20.5818C29.3578 20.9325 29.7135 20.8741 30.1413 20.916C30.3697 20.9403 31.7119 21.523 32.0658 21.7383C32.3889 21.939 33.0244 21.8679 33.4116 22.355C33.7989 22.8422 33.6824 21.3242 33.3015 20.8936C32.9206 20.4629 32.2599 20.3821 32.2951 20.4756C32.0459 19.8248 34.2069 19.8014 34.1536 20.726C34.5806 20.5964 34.5002 19.8862 34.2863 19.6095C33.9704 19.2003 33.4306 18.9791 32.9459 18.9489C32.7888 18.9372 31.9313 18.9372 32.1642 18.5231C32.2725 18.3283 33.3105 17.7515 34.122 18.1471C34.2637 17.9386 33.7989 17.5342 33.2907 17.3374C33.056 17.2458 32.3745 17.1961 32.1551 17.3033C31.8618 17.4465 31.6569 17.6219 31.3599 17.7729C30.4916 18.2114 29.7541 18.6741 28.7666 18.4101C27.761 18.1451 27.0516 17.3949 26.1778 16.8659C25.7626 16.6145 25.3329 16.3885 24.9348 16.101C24.5666 15.8351 24.1586 15.5028 23.5583 15.5028C24.1161 14.0024 23.2017 11.4108 20.6527 11.0727C20.6906 10.76 21.0616 10.5856 21.493 10.6148C21.3125 10.2845 19.6164 9.26736 18.1279 9.31023C17.7723 9.29951 17.5566 8.97117 17.4058 8.66135C17.2452 8.32522 17.1937 7.75526 17.6053 7.61009C18.3843 7.34118 18.9656 8.80652 19.7049 8.33691C20.0975 8.08749 20.956 7.58183 20.8494 6.9729C20.7538 6.43315 19.4837 6.77122 19.1443 6.80143C18.4069 6.8706 17.6495 6.93296 17.3119 6.02979C16.9112 4.95807 17.9492 4.17863 18.8085 4.02957C19.2472 3.95357 19.8303 3.93214 20.2338 4.17279C20.5678 4.36765 20.8657 4.6346 21.1943 4.8431C21.4858 5.02627 21.9317 4.86746 22.0066 4.48554C22.0969 4.04321 21.7557 3.59796 21.4587 3.34074C21.6555 3.19363 21.929 3.19363 22.1556 3.17414C21.938 2.06345 20.5868 1.97771 19.7554 2.08586C19.3944 2.13457 19.0333 2.73571 18.6993 2.67043C18.412 2.59753 18.1316 2.4961 17.8617 2.36743C17.5611 2.23687 17.1775 2.10339 16.9419 1.85008C16.6557 1.54025 17.1594 1.52174 17.3363 1.61917C17.803 1.87638 18.3969 1.72342 18.9114 1.67958C19.2093 1.65522 19.4864 1.67958 19.6913 1.41652C19.8529 1.21387 19.9378 0.948859 19.7166 0.723797C19.296 0.292186 18.3626 0.568885 17.8653 0.636111C17.4582 0.690672 17.1964 0.666314 16.839 0.410076C16.3981 0.0874547 15.8639 -0.0520159 15.3351 0.0174361C14.205 0.114865 13.1543 0.723797 12.0017 0.602011C12.3248 1.02778 12.814 1.24504 13.2392 1.52174C12.9594 2.05273 11.8852 1.74485 11.4583 1.77116C11.0313 1.79747 9.93729 2.00694 9.63129 2.62659C11.0457 2.14431 11.8635 2.80878 11.9926 2.9481C12.0869 3.05878 12.1573 3.19061 12.1988 3.33412C12.2403 3.47764 12.2519 3.62929 12.2327 3.7782C11.4312 3.3729 10.4148 3.58334 9.69538 4.09095C9.39209 4.30432 9.11317 4.61414 9.06352 5.02822C9.4652 4.67552 9.85063 4.59855 9.99416 4.65993C10.0005 4.65993 8.85501 5.54946 8.7846 7.19309C9.76578 5.18508 10.8607 5.00581 11.303 5.20067C11.4321 5.25912 11.98 5.46957 11.8446 5.72483C11.7092 5.9801 11.303 6.06097 11.0828 6.14768C10.7713 6.27141 10.4356 6.38735 10.1684 6.60949C9.42007 7.22135 9.28016 8.61166 9.16913 9.53237C9.13212 9.83245 9.10143 10.1316 9.07165 10.4316C9.84973 8.35445 10.886 7.47077 11.7426 8.01345C11.8924 8.09334 12.49 8.50059 12.1578 8.71006C11.7507 8.96533 11.3021 9.15239 10.9302 9.47099C10.5023 9.8344 10.4789 10.2446 10.4455 10.7921C10.4121 11.3397 10.366 13.5679 10.3498 13.751C10.2984 14.2963 10.1497 14.8256 9.91201 15.3099C10.4374 15.0615 10.9302 14.699 11.2272 14.1408C11.4312 13.7588 11.3229 13.146 11.4537 12.921C11.4889 12.8576 12.1759 17.0919 10.932 20.5506C10.0709 22.9386 9.64122 23.3283 9.62678 23.5475C9.60963 23.7921 9.38848 24.061 9.13754 24.0016C9.46069 24.1302 8.98319 24.5745 8.87216 24.6612C8.71239 24.781 8.70156 24.9885 8.5445 25.1931C8.13921 25.7134 7.47576 25.917 6.86015 25.9229C6.16872 25.9287 5.44479 25.6842 4.93389 25.1649C4.29211 24.5121 4.22351 23.5524 4.34536 22.6531C4.66129 20.3382 6.18045 18.5183 6.96305 16.3962C7.31328 15.4531 7.78356 14.4204 7.89369 13.4061C8.25475 10.0205 6.34203 8.41096 4.24336 8.46844C4.25781 8.34763 4.01319 8.04267 3.8823 7.92966C3.57812 7.65447 3.19594 7.49978 2.79912 7.49123C2.02645 7.48148 0.33037 8.61751 0 9.37453Z" fill="#C62025"/>
<path d="M63.2947 25.4017C63.2947 27.4779 62.5645 29.2463 61.0904 30.7136C59.63 32.1867 56.9635 32.9125 53.0902 32.9125C51.9168 32.9125 50.6197 32.8794 49.2088 32.8151C47.798 32.7508 46.5478 32.7177 45.443 32.7177C44.3381 32.7177 43.1187 32.7518 41.7972 32.8151C40.4757 32.8784 39.2264 32.9125 38.0458 32.9125C37.9744 32.9125 37.9113 32.8102 37.8481 32.6047C37.7916 32.4304 37.7612 32.2475 37.7578 32.0629C37.7636 31.8878 37.794 31.7147 37.8481 31.5495C37.9113 31.3439 37.9744 31.227 38.0458 31.2065C39.4674 31.0214 40.4008 30.6921 40.844 30.2323C41.2872 29.7724 41.5101 28.9988 41.5101 27.929V10.8439C41.5101 9.78187 41.2818 9.01316 40.844 8.54745C40.4062 8.08173 39.4656 7.75242 38.0458 7.57315C37.9744 7.54587 37.9113 7.42896 37.8481 7.22436C37.7937 7.06127 37.7632 6.89 37.7578 6.71675C37.7611 6.52994 37.7916 6.34484 37.8481 6.16823C37.9113 5.96265 37.9744 5.85938 38.0458 5.85938C39.2264 5.85938 40.4396 5.89445 41.6898 5.9568C42.9399 6.01916 44.1152 6.05423 45.2273 6.05423C46.3393 6.05423 47.501 6.02111 48.7386 5.9568C49.9761 5.8925 51.1893 5.85938 52.3645 5.85938C55.7109 5.85938 58.1385 6.42381 59.6471 7.55269C61.1557 8.68157 61.9158 10.143 61.9272 11.937C61.9272 13.4179 61.3239 14.7293 60.1174 15.8712C58.9108 17.0131 57.1567 17.7636 54.8549 18.1228C57.5981 18.2524 59.6931 19.0688 61.1347 20.5585C62.5762 22.0482 63.2947 23.6675 63.2947 25.4017ZM54.4614 12.4436C54.4614 10.7873 54.1752 9.58604 53.5921 8.85922C53.009 8.1324 52.073 7.76899 50.7786 7.76899H50.3471C49.8452 7.76899 49.4318 7.8859 49.1204 8.11876C48.809 8.35161 48.6537 8.83584 48.6537 9.56168V17.4232H50.5592C51.9565 17.4232 52.953 17.0257 53.556 16.2375C54.159 15.4493 54.4614 14.1818 54.4614 12.4407V12.4436ZM55.865 25.0178C55.865 23.1462 55.4904 21.7277 54.7286 20.7475C53.9667 19.7674 52.8492 19.2861 51.3572 19.2861H48.6537V28.5545C48.6537 29.4109 48.864 30.0345 49.2955 30.4252C49.727 30.8159 50.3173 31.0097 51.0602 31.0097C52.2228 31.0097 53.3108 30.5369 54.3242 29.5912C55.3568 28.6432 55.865 27.1145 55.865 25.0178Z" fill="#C62025"/>
<path d="M90.3054 23.8039C90.1402 25.2653 89.9822 26.7988 89.8233 28.4171C89.6645 30.0354 89.5526 31.5349 89.4803 32.9125C87.9684 32.8648 86.0638 32.8151 83.7783 32.7829C81.4928 32.7508 79.6568 32.7216 78.2604 32.7216C76.864 32.7216 74.8818 32.7488 72.3101 32.8034C69.7385 32.858 67.814 32.8862 66.5331 32.9125C66.4627 32.9125 66.3995 32.8102 66.3364 32.6047C66.2171 32.2647 66.2171 31.8894 66.3364 31.5495C66.3995 31.3439 66.4627 31.227 66.5331 31.2065C67.9557 31.0214 68.8891 30.6921 69.3314 30.2323C69.7737 29.7724 70.0047 28.9988 70.0047 27.929V10.8439C70.0047 9.78187 69.7827 9.01316 69.3314 8.54745C68.88 8.08173 67.9602 7.75242 66.5331 7.57315C66.4627 7.54587 66.3995 7.42896 66.3364 7.22436C66.2851 7.06036 66.2547 6.88959 66.2461 6.71675C66.2526 6.53029 66.283 6.34569 66.3364 6.16823C66.3995 5.96265 66.4627 5.85938 66.5331 5.85938C67.8095 5.88763 69.6383 5.92173 72.0195 5.97629C74.4006 6.03085 76.3567 6.05813 77.9002 6.05813C79.1946 6.05813 81.0339 6.03767 83.4181 5.99675C85.793 5.95583 87.7238 5.91491 89.1834 5.85938C89.1328 6.92233 89.1581 8.29998 89.2402 9.9855C89.3224 11.671 89.3874 13.1938 89.437 14.5442C89.437 14.6416 89.3468 14.7566 89.1716 14.8725C88.9419 14.9991 88.6854 15.0583 88.4279 15.044C88.2807 15.0506 88.1339 15.0247 87.9964 14.968C87.8754 14.9135 87.8159 14.8657 87.8159 14.8112C87.6245 13.1802 86.9971 11.6243 85.9203 10.1638C84.8434 8.70333 83.3423 7.96384 81.3926 7.96384H79.238C78.7454 7.96632 78.261 8.1002 77.828 8.35356C77.3713 8.60785 77.1429 9.24504 77.1429 10.2593V18.3245H78.3678C79.5737 18.3245 80.5396 17.9347 81.2761 17.1553C82.0127 16.3759 82.4315 15.3519 82.5525 14.0775C82.5525 14.0015 82.6536 13.9343 82.8576 13.8651C83.0163 13.8108 83.1806 13.7781 83.3468 13.7677C83.5238 13.7708 83.6992 13.8037 83.8668 13.8651C84.0473 13.9343 84.1375 14.0015 84.1375 14.0775C84.1375 15.0372 84.106 15.9355 84.0473 16.7646C83.9886 17.5937 83.957 18.4501 83.957 19.3348C83.957 20.2458 83.9886 21.0963 84.0473 21.8845C84.106 22.6727 84.1375 23.5408 84.1375 24.4752C84.1375 24.5502 84.0473 24.6252 83.8668 24.6876C83.7 24.7522 83.524 24.7852 83.3468 24.785C83.1863 24.7789 83.0277 24.746 82.8765 24.6876C82.6861 24.6252 82.5778 24.5502 82.5525 24.4752C82.4063 23.1248 82.0109 22.0833 81.3456 21.3428C80.6804 20.6024 79.6947 20.2321 78.3669 20.2321H77.1429V28.5253C77.1429 29.458 77.3713 30.0751 77.828 30.3764C78.2513 30.6615 78.7391 30.8155 79.238 30.8217H81.111C82.9397 30.8217 84.5582 30.1085 85.9853 28.6831C87.3815 27.2919 88.3179 25.446 88.6517 23.4268C88.6517 23.3713 88.7095 23.3294 88.8169 23.3031C88.9402 23.2768 89.0658 23.2653 89.1915 23.269C89.4571 23.2661 89.7205 23.3197 89.9669 23.4268C90.2232 23.5233 90.3306 23.647 90.3054 23.8039Z" fill="#C62025"/>
<path d="M117.541 22.8715C117.37 24.3251 117.211 26.1071 117.051 28.2047C116.891 30.3024 116.791 31.8778 116.747 32.9125C115.228 32.8648 113.344 32.8151 111.083 32.7829C108.821 32.7508 106.98 32.7216 105.565 32.7216C104.027 32.7216 102.044 32.7488 99.6143 32.8034C97.185 32.858 95.3689 32.8943 94.1659 32.9125C94.0964 32.9125 94.026 32.8151 93.9692 32.6202C93.9129 32.4389 93.8824 32.2493 93.8789 32.0581C93.8885 31.8834 93.9188 31.7109 93.9692 31.5446C94.026 31.339 94.0964 31.2221 94.1659 31.2017C95.5642 31.0165 96.484 30.6872 96.929 30.2274C97.374 29.7675 97.5951 28.9939 97.5951 27.9241V10.8438C97.5951 9.78186 97.3731 9.01315 96.929 8.54744C96.4849 8.08172 95.5642 7.75241 94.1659 7.57314C94.0964 7.54586 94.026 7.42895 93.9692 7.22435C93.9184 7.0602 93.8881 6.88951 93.8789 6.71674C93.8824 6.52327 93.9128 6.33146 93.9692 6.14776C94.026 5.9529 94.0964 5.85547 94.1659 5.85547C95.3222 5.85547 96.5128 5.89054 97.7224 5.9529C98.9319 6.01525 100.085 6.05033 101.163 6.05033C102.269 6.05033 103.423 6.01785 104.625 5.9529C105.831 5.89152 107.019 5.85547 108.2 5.85547C108.269 5.85547 108.333 5.95874 108.396 6.16432C108.45 6.34179 108.48 6.52638 108.487 6.71285C108.477 6.8922 108.446 7.06955 108.396 7.24091C108.333 7.46013 108.269 7.56925 108.2 7.56925C106.803 7.72708 105.876 8.05185 105.418 8.54354C104.962 9.0375 104.739 9.79745 104.739 10.8399V28.5194C104.739 29.4518 104.968 30.0686 105.437 30.3706C105.866 30.654 106.357 30.8078 106.86 30.8158H108.917C110.602 30.8158 112.099 29.9591 113.407 28.2457C114.693 26.5928 115.558 24.606 115.914 22.4818C115.914 22.434 115.959 22.3931 116.042 22.3648C116.164 22.3329 116.29 22.3192 116.416 22.3239C116.684 22.325 116.948 22.3784 117.198 22.4818C117.451 22.5909 117.565 22.7146 117.541 22.8715Z" fill="#C62025"/>
<path d="M148.089 20.9458C148.078 21.1251 148.048 21.3023 147.999 21.4739C147.935 21.6931 147.872 21.8022 147.802 21.8022C146.646 21.9259 145.853 22.2689 145.42 22.8174C144.986 23.3659 144.772 24.1191 144.772 25.0787V29.0129C144.772 29.6637 144.798 30.1304 144.863 30.4179C144.936 30.7409 145.039 31.0555 145.169 31.3571C143.536 31.9562 141.874 32.4571 140.19 32.8575C138.272 33.317 136.312 33.5457 134.348 33.5395C132.018 33.5395 129.935 33.1498 128.112 32.3703C126.29 31.5909 124.766 30.5406 123.566 29.2175C122.394 27.9589 121.485 26.4445 120.899 24.7757C120.298 23.0996 119.991 21.3169 119.996 19.5194C119.983 17.6559 120.321 15.8088 120.989 14.0907C121.651 12.4188 122.655 10.895 124 9.51931C125.324 8.19622 126.989 7.15211 128.997 6.38697C131.004 5.62182 133.233 5.23828 135.684 5.23633C137.161 5.24683 138.63 5.4703 140.052 5.90079C141.569 6.33923 142.879 6.55844 143.983 6.55844C143.983 7.62042 144.006 8.99125 144.053 10.6709C144.103 12.3428 144.143 13.7477 144.16 14.8925C144.16 14.9675 144.058 15.0367 143.855 15.1049C143.674 15.1646 143.486 15.1974 143.297 15.2024C143.143 15.2039 142.991 15.1786 142.845 15.1273C142.788 15.1107 142.734 15.0813 142.687 15.0411C142.641 15.0008 142.602 14.9506 142.575 14.8935C142.015 12.741 141.023 10.9109 139.596 9.40337C138.161 7.89614 136.453 7.14204 134.451 7.14204C132.292 7.14204 130.579 8.2982 129.313 10.6105C128.047 12.9228 127.415 15.8928 127.417 19.5204C127.417 23.022 128.029 25.9234 129.252 28.2247C130.476 30.526 132.171 31.6727 134.339 31.6649C135.812 31.6649 136.802 31.4594 137.317 31.0414C137.833 30.6234 138.092 30.0067 138.092 29.1708V24.5302C138.092 23.6469 137.876 23.0233 137.445 22.6596C137.013 22.2962 136.055 22.0224 134.563 21.8441C134.486 21.8441 134.423 21.734 134.359 21.5284C134.303 21.3393 134.273 21.1424 134.269 20.9438C134.272 20.7525 134.303 20.5629 134.359 20.3817C134.423 20.1868 134.486 20.0894 134.563 20.0894C135.736 20.0894 136.771 20.1303 137.66 20.2122C138.55 20.294 139.534 20.3359 140.62 20.3359C141.706 20.3359 142.899 20.3018 144.151 20.2122C145.402 20.1225 146.614 20.0894 147.795 20.0894C147.866 20.0894 147.929 20.1868 147.992 20.3973C148.047 20.5745 148.08 20.7591 148.089 20.9458Z" fill="#C62025"/>
<path d="M176.869 32.0615C176.864 32.2464 176.832 32.4292 176.774 32.6032C176.717 32.8088 176.654 32.9111 176.577 32.9111C175.428 32.9111 174.26 32.8779 173.085 32.8136C171.911 32.7493 170.829 32.7162 169.836 32.7162C168.731 32.7162 167.55 32.7503 166.288 32.8136C165.025 32.877 163.804 32.9111 162.623 32.9111C162.553 32.9111 162.489 32.8136 162.426 32.6188C162.37 32.4375 162.339 32.2479 162.336 32.0566C162.34 31.8839 162.359 31.712 162.393 31.5432C162.424 31.3376 162.483 31.2207 162.552 31.2002C163.706 31.1184 164.469 30.9605 164.843 30.7072C165.218 30.4539 165.402 30.0827 165.402 29.5624C165.392 29.2977 165.35 29.0356 165.276 28.783C165.193 28.4741 165.104 28.1935 165.005 27.9256L164.02 25.2054H156.444L155.569 27.4599C155.434 27.7964 155.319 28.142 155.226 28.4946C155.149 28.7659 155.106 29.047 155.098 29.3305C155.098 29.8723 155.238 30.3107 155.517 30.64C155.796 30.9693 156.559 31.1466 157.804 31.2022C157.879 31.2022 157.924 31.3123 157.95 31.5315C157.972 31.7062 157.985 31.8822 157.988 32.0586C157.983 32.2502 157.951 32.4398 157.892 32.6207C157.835 32.8156 157.765 32.913 157.695 32.913C156.661 32.913 155.86 32.8799 155.283 32.8156C154.705 32.7513 153.937 32.7182 152.977 32.7182C152.185 32.7182 151.485 32.7523 150.881 32.8156C150.277 32.8789 149.58 32.913 148.762 32.913C148.691 32.913 148.627 32.8107 148.581 32.5847C148.539 32.4146 148.515 32.2396 148.512 32.0634C148.526 31.8811 148.58 31.7051 148.67 31.55C148.778 31.3444 148.867 31.2275 148.94 31.207C149.976 31.0969 150.783 30.7686 151.36 30.1928C151.938 29.617 152.528 28.6641 153.131 27.3069L162.068 5.54615C162.093 5.47113 162.22 5.40196 162.461 5.33376C162.688 5.27197 162.921 5.23927 163.155 5.23633C163.385 5.23972 163.615 5.27242 163.839 5.33376C164.074 5.40196 164.208 5.47113 164.233 5.54615L172.241 27.3069C172.672 28.6099 173.188 29.5517 173.79 30.1324C174.393 30.717 175.295 31.0775 176.498 31.2041C176.567 31.2041 176.65 31.3142 176.732 31.5334C176.807 31.699 176.854 31.8779 176.869 32.0615ZM163.338 23.3367L160.302 14.7698L157.134 23.3367H163.338Z" fill="#C62025"/>
<path d="M74.5508 43.6211H75.5581V53.9106H74.5508V43.6211Z" fill="#C62025"/>
<path d="M86.9833 43.6211V53.9106H86.152L80.0239 45.5619V53.9106H79.0156V43.6211H79.8461L85.9841 51.9708V43.6211H86.9833Z" fill="#C62025"/>
<path d="M100.345 43.6211V53.9106H99.3816V45.6788L95.6365 52.6031H95.1599L91.4148 45.7236V53.9077H90.4453V43.6211H91.2758L95.4144 51.2537L99.5133 43.624L100.345 43.6211Z" fill="#C62025"/>
<path d="M102.961 48.7671C102.961 45.7682 105.086 43.5332 107.972 43.5332C110.833 43.5332 112.971 45.7536 112.971 48.7671C112.971 51.7806 110.833 54 107.972 54C105.086 54 102.961 51.766 102.961 48.7671ZM111.963 48.7671C111.963 46.3119 110.261 44.5036 107.972 44.5036C105.684 44.5036 103.955 46.3119 103.955 48.7671C103.955 51.2223 105.67 53.0296 107.972 53.0296C110.275 53.0296 111.963 51.2213 111.963 48.7671Z" fill="#C62025"/>
<path d="M123.55 51.1621C123.55 52.9158 122.351 53.9106 119.968 53.9106H115.582V43.6211H119.695C121.819 43.6211 123.045 44.5954 123.045 46.2673C123.045 47.4432 122.46 48.2217 121.588 48.6056C122.814 48.8988 123.55 49.7659 123.55 51.1621ZM116.59 44.5174V48.2519H119.627C121.152 48.2519 122.038 47.6196 122.038 46.3842C122.038 45.1488 121.152 44.5174 119.627 44.5174H116.59ZM122.541 51.0744C122.541 49.7357 121.629 49.1482 119.954 49.1482H116.59V53.0142H119.954C121.629 53.0142 122.541 52.4228 122.541 51.0744Z" fill="#C62025"/>
<path d="M126.207 43.6211H127.214V53.9106H126.207V43.6211Z" fill="#C62025"/>
<path d="M130.672 43.6211H131.68V52.9743H137.021V53.9145H130.675L130.672 43.6211Z" fill="#C62025"/>
<path d="M139.047 43.6211H140.054V53.9106H139.047V43.6211Z" fill="#C62025"/>
<path d="M149.496 51.1621H144.184L143.041 53.9106H141.988L146.346 43.6211H147.339L151.697 53.9106H150.635L149.496 51.1621ZM149.128 50.2852L146.84 44.7581L144.552 50.2794L149.128 50.2852Z" fill="#C62025"/>
<path d="M160.146 53.9106L157.966 50.6038C157.712 50.6338 157.458 50.6484 157.203 50.6477H154.644V53.9106H153.633V43.6211H157.201C159.625 43.6211 161.096 44.9442 161.096 47.149C161.096 48.7663 160.306 49.8975 158.917 50.3827L161.246 53.9106H160.146ZM160.091 47.149C160.091 45.5025 159.084 44.5623 157.177 44.5623H154.644V49.7211H157.177C159.084 49.7211 160.091 48.7663 160.091 47.149Z" fill="#C62025"/>
<path d="M163.832 43.6211H164.84V53.9106H163.832V43.6211Z" fill="#C62025"/>
<path d="M174.281 51.1621H168.97L167.826 53.9106H166.777L171.135 43.6211H172.128L176.486 53.9106H175.424L174.281 51.1621ZM173.914 50.2852L171.625 44.7581L169.338 50.2794L173.914 50.2852Z" fill="#C62025"/>
</svg>
