<svg xmlns="http://www.w3.org/2000/svg" width="84" height="84" fill="none"><path fill="#F1B332" d="M84 0H0v84h84V0Z"/><path fill="#C62025" d="M25.313 71.894h.335v3.142h-.335v-3.142ZM29.396 71.894v3.142h-.276l-2.011-2.549v2.549h-.336v-3.142h.277l2.021 2.549v-2.549h.325ZM33.793 71.894v3.142h-.315v-2.51l-1.233 2.115h-.158l-1.232-2.104v2.499h-.316v-3.142h.276l1.361 2.332 1.351-2.332h.276-.01ZM34.652 73.465c0-.918.7-1.6 1.647-1.6.947 0 1.647.682 1.647 1.6 0 .919-.7 1.6-1.647 1.6-.947 0-1.647-.681-1.647-1.6Zm2.959 0c0-.75-.562-1.303-1.312-1.303s-1.321.553-1.321 1.303c0 .751.562 1.304 1.321 1.304.76 0 1.312-.553 1.312-1.304ZM41.426 74.196c0 .533-.395.84-1.174.84h-1.44v-3.142h1.352c.7 0 1.104.297 1.104.81 0 .356-.197.593-.483.712.404.089.64.355.64.78Zm-2.288-2.025v1.136h.996c.503 0 .789-.198.789-.573 0-.375-.296-.573-.79-.573h-.995v.01Zm1.953 2.005c0-.405-.296-.582-.849-.582h-1.104v1.175h1.104c.553 0 .849-.178.849-.593ZM42.293 71.894h.336v3.142h-.336v-3.142ZM43.762 71.894h.335v2.855h1.755v.287h-2.09v-3.142ZM46.523 71.894h.336v3.142h-.336v-3.142ZM49.958 74.196h-1.746l-.375.84h-.345l1.43-3.142h.326l1.43 3.142h-.346l-.374-.84Zm-.119-.267-.75-1.689-.749 1.69h1.509-.01ZM53.456 75.036l-.72-1.008c-.078 0-.157.01-.246.01h-.838v.998h-.336v-3.142h1.174c.799 0 1.282.405 1.282 1.077 0 .494-.256.84-.72.988l.77 1.077h-.366Zm-.02-2.065c0-.504-.335-.79-.956-.79h-.828v1.57h.828c.631 0 .957-.296.957-.78ZM54.672 71.894h.336v3.142h-.336v-3.142ZM58.114 74.196h-1.746l-.374.84h-.346l1.43-3.142h.326l1.43 3.142h-.346l-.374-.84Zm-.119-.267-.749-1.689-.75 1.69h1.51-.01ZM27.402 66.363a2.12 2.12 0 0 1-.72 1.62c-.483.444-1.36.671-2.633.671-.385 0-.809 0-1.272-.03-.464-.019-.878-.029-1.243-.029-.364 0-.759 0-1.203.03-.434.02-.848.03-1.232.03-.02 0-.05-.03-.07-.1a.55.55 0 0 1-.029-.167c0-.04 0-.09.03-.158.02-.06.039-.099.069-.109.463-.06.769-.158.917-.296.148-.139.217-.376.217-.702v-5.215c0-.326-.07-.553-.217-.701-.148-.139-.454-.237-.917-.297-.02 0-.05-.04-.07-.108a.545.545 0 0 1-.029-.158c0-.05 0-.1.03-.168.02-.06.039-.099.069-.099.384 0 .788.01 1.203.03.414.02.799.03 1.163.03.365 0 .75 0 1.154-.03.404-.02.809-.03 1.193-.03 1.095 0 1.894.168 2.397.514.503.345.75.79.75 1.333 0 .455-.198.85-.593 1.195-.394.346-.976.583-1.735.692.897.04 1.587.286 2.06.74.474.455.71.949.71 1.482v.03Zm-2.91-3.961c0-.504-.098-.87-.285-1.096-.188-.218-.503-.336-.927-.336h-.138a.723.723 0 0 0-.405.108c-.098.07-.157.218-.157.445v2.4h.63c.464 0 .79-.119.987-.365.197-.237.296-.633.296-1.156Zm.464 3.842c0-.573-.128-1.007-.375-1.303-.246-.297-.62-.445-1.104-.445h-.887v2.825c0 .267.069.454.216.573.139.118.336.178.582.178.385 0 .74-.148 1.075-.435.335-.286.503-.75.503-1.393h-.01ZM36.288 65.88c-.06.444-.109.908-.158 1.412-.05.494-.089.948-.109 1.373-.502-.02-1.124-.03-1.873-.04-.75-.01-1.361-.02-1.815-.02-.453 0-1.114 0-1.962.02-.848.02-1.48.03-1.893.04-.02 0-.05-.03-.07-.099a.549.549 0 0 1-.03-.168c0-.039 0-.088.03-.157.02-.06.04-.1.07-.11.463-.058.769-.157.917-.296.148-.138.217-.375.217-.7v-5.216c0-.326-.07-.553-.217-.702-.148-.138-.454-.237-.918-.296-.02 0-.049-.04-.069-.109a.544.544 0 0 1-.03-.158c0-.049 0-.098.03-.168.02-.059.04-.098.07-.098.414 0 1.015.02 1.804.04.78.019 1.43.019 1.933.019.424 0 1.035 0 1.814-.02.78-.01 1.42-.03 1.894-.04-.02.327 0 .742.02 1.265.03.514.049.978.069 1.393 0 .03-.03.069-.09.099-.058.04-.137.049-.246.049-.059 0-.098 0-.138-.02-.04-.02-.059-.03-.059-.05-.06-.503-.266-.967-.621-1.422-.355-.444-.848-.671-1.49-.671h-.71a.98.98 0 0 0-.463.118c-.148.08-.227.277-.227.583v2.46h.405c.394 0 .71-.119.956-.356.237-.237.385-.553.424-.938 0-.02.03-.05.099-.07.069-.02.118-.03.158-.03.059 0 .108 0 .167.03.06.02.09.04.09.07 0 .296 0 .563-.03.82-.02.256-.03.513-.03.78 0 .266 0 .533.03.78.02.237.03.504.03.79 0 .02-.03.05-.09.07a.545.545 0 0 1-.167.03c-.04 0-.089 0-.158-.03-.06-.02-.099-.04-.109-.07-.049-.414-.177-.73-.394-.958-.217-.227-.542-.336-.976-.336h-.405v2.53c0 .285.08.473.227.562a.902.902 0 0 0 .464.138h.611c.602 0 1.134-.217 1.598-.651.463-.435.759-.969.877-1.6 0-.02.02-.03.05-.04.039 0 .078-.01.128-.01.088 0 .167.02.256.05.089.029.118.068.109.118v.01ZM45.24 65.593c-.06.445-.109.988-.158 1.63-.05.642-.089 1.116-.099 1.432-.503-.02-1.124-.03-1.863-.04-.74-.01-1.351-.019-1.815-.019-.503 0-1.154 0-1.962.02-.8.02-1.4.03-1.795.04-.02 0-.05-.03-.07-.09a.549.549 0 0 1-.029-.168c0-.039.01-.088.03-.157.02-.06.04-.1.069-.11.453-.058.76-.157.907-.296.148-.138.217-.375.217-.7v-5.216c0-.326-.069-.553-.217-.702-.148-.138-.453-.237-.907-.296-.02 0-.05-.04-.07-.109a.544.544 0 0 1-.029-.158c0-.059.01-.108.03-.177.02-.06.04-.09.069-.09.375 0 .769.01 1.173.03.395.02.78.03 1.134.03.355 0 .74 0 1.134-.03.395-.02.79-.03 1.174-.03.02 0 .05.03.069.1.02.059.03.118.03.167 0 .04-.01.09-.03.158-.02.07-.04.1-.07.1-.463.049-.758.147-.916.296-.148.148-.227.385-.227.7v5.394c0 .286.079.474.227.563a.93.93 0 0 0 .463.138h.68c.553 0 1.046-.256 1.48-.78.434-.523.71-1.106.828-1.758 0-.02.01-.03.04-.04.03 0 .069-.01.128-.01a.74.74 0 0 1 .256.05c.08.03.119.069.109.118l.01.01ZM55.289 65.01s-.01.09-.03.158c-.02.07-.04.1-.069.1-.374.039-.64.138-.779.305-.138.168-.217.396-.217.692v1.205c0 .198 0 .346.03.425.02.089.05.178.099.286-.474.168-1.016.316-1.637.454a8.693 8.693 0 0 1-1.923.208c-.77 0-1.45-.119-2.051-.356a4.3 4.3 0 0 1-1.5-.958 3.861 3.861 0 0 1-.877-1.353 4.428 4.428 0 0 1-.296-1.6c0-.593.108-1.146.325-1.66.217-.513.553-.978.987-1.392.434-.405.986-.721 1.646-.959.661-.237 1.39-.345 2.2-.345.463 0 .936.069 1.44.197.502.139.926.198 1.291.198 0 .326 0 .74.02 1.254s.03.939.04 1.284c0 .02-.03.05-.1.07a.667.667 0 0 1-.187.03c-.059 0-.108 0-.148-.02a.165.165 0 0 1-.088-.07 3.784 3.784 0 0 0-.977-1.679 2.321 2.321 0 0 0-1.686-.691c-.71 0-1.272.355-1.686 1.056-.414.702-.621 1.61-.621 2.717 0 1.106.207 1.956.601 2.657.404.701.957 1.047 1.677 1.047.483 0 .808-.06.976-.188.167-.128.256-.316.256-.572v-1.413c0-.267-.069-.464-.217-.573-.138-.109-.453-.198-.946-.247-.02 0-.05-.03-.07-.099a.503.503 0 0 1 0-.346c.02-.059.04-.088.07-.088.384 0 .73.01 1.015.04.296.029.621.039.977.039.354 0 .749-.01 1.163-.04.414-.03.809-.04 1.193-.04.02 0 .05.03.07.1.02.059.029.118.029.167ZM64.755 68.398s-.01.1-.03.168c-.02.06-.04.1-.069.1-.375 0-.76 0-1.154-.03-.384-.02-.74-.03-1.065-.03-.365 0-.75 0-1.163.03-.415.02-.819.03-1.203.03-.02 0-.05-.03-.07-.09a.55.55 0 0 1-.03-.168c0-.04 0-.089.02-.158.01-.059.03-.099.05-.108.375-.02.631-.07.75-.148a.39.39 0 0 0 .187-.346c0-.06-.01-.148-.04-.237-.03-.1-.059-.178-.089-.257l-.325-.83H58.03l-.286.692c-.05.108-.089.217-.108.316a.905.905 0 0 0-.04.257c0 .167.05.296.138.395.09.098.346.158.75.168.02 0 .04.03.05.098 0 .07.009.119.009.158 0 .06-.01.109-.03.168-.02.06-.04.09-.069.09-.335 0-.601 0-.789-.03a7.68 7.68 0 0 0-.759-.03c-.256 0-.493 0-.69.03-.197.02-.434.03-.7.03-.02 0-.04-.03-.06-.1-.02-.069-.02-.118-.02-.158 0-.04.02-.089.05-.158a.384.384 0 0 1 .089-.108c.335-.03.601-.139.799-.307.187-.177.384-.464.581-.879l2.94-6.638s.048-.049.127-.069a.952.952 0 0 1 .227-.03c.07 0 .148 0 .227.03.079.02.118.04.128.07l2.633 6.637c.138.395.316.682.513.86.197.177.493.286.887.326.02 0 .05.03.08.098.029.07.039.119.039.159h.01Zm-4.448-2.657-.996-2.617-1.045 2.617h2.041ZM61.046 18.693c-.967.603-2.288.405-3.353.692-1.233.335-1.647 1.432-1.312 2.598-.828-.129-1.814-.623-2.653-.366.819.642 1.677 1.235 2.377 2.015-1.548.8-2.83-1.432-4.388-.919 1.183.307 1.607 1.482 2.376 2.292-2.662.356-4.013-1.916-5.394-3.753 2.18-.05 4.507-.445 6.193-1.927.73-.651 1.292-1.462 1.706-2.35.454-.978.858-2.065 2.16-1.858-.138.554-.582.968-.641 1.561.63-.612 1.844-1.966 2.82-1.235.257.188.858.929.197.929-.463 0-1.154.632-1.005 1.136.64-.415 1.35-.642 2.1-.366-.473.475-.602 1.196-1.183 1.561M40.77 36.008c1.825-.128 2.14-.701 3.285-1.047 1.045-.316 2.406.563 3.382 1.472.68.632.828 1.6.503 2.41-.375.919-1.233 1.719-1.262 2.756 0 .247.04.504.138.731.128.316.217.286.513.395.216.089.404.425.581.583.188.168.395.267.641.316.957.207 2.475.267 3.353-.257.967-.583 3.008-1.225 3.491.267.03.079.05.158.06.227-.602.03-1.224-.316-1.815-.118-.197.069-.385.306-.257.513.138.237.563.227.8.237.68.03 1.261-.079 1.735.504.384.464.907 1.57.089 1.897.03-.78-1.46-1.285-2.061-1.314-.09 0-.267-.01-.306.089-.089.207.335.326.453.385.661.306 1.282 1.442 1.184 1.67-1.144 0-1.864-.02-2.288-.258-.355-.266-1.331-1.244-2.012-1.392-.522-.119-1.025-.257-1.548-.228-.947.06-1.884.445-2.84.415.099-.464.582-1.096 1.095-1.096-1.134-.84-2.791.197-3.974.415-.543.099-1.795-.01-1.795-.593.779-.276 2.86-1.333 2.554-1.58-.503-.405-1.006-.632-1.667-.573-.887.079-1.587.494-2.475.553-.06-.445.108-.85.266-1.245.197-.504.05-.988-.04-1.511-.325-1.956-1.271-2.144-1.468-3.062-.09-.474.098-1.363 1.706-1.55l-.02-.01ZM49.269 15.83c-1.322 0-2.544-.613-3.816-.92-.227-.049-.632-.03-.819-.167-.207-.159-.079-.514.187-.484.7.079 1.38.296 2.052.513 1.065.346 2.248.76 3.362.366.237-.09.523-.356.76-.366.266-.02.394.336.167.484a3.321 3.321 0 0 1-1.893.583"/><path fill="#C62025" d="M21.512 19.247c.246.81 4.142 2.173 4.94.72.247-.454.257-.582.365-1.086 1.982.119 3.008 1.353 3.195 3.408.119 1.264-.424 2.183-1.085 4.01-.62 1.71-1.824 3.033-2.741 4.584-.217.365-.73.987-1.095 1.738-.305.701-.286 1.511-.276 2.262.01 1.689 1.637 3.26 2.377 3.783.266.208.68.356 1.144.435-1.036 1.491-.78 3.437-.572 4.741.227 1.452 1.617 3.3 2.278 3.675.65.365 1.47.79 1.42 1.65-.05.849-1.243.453-1.716.305.108.425.434.721.799.939.286.168.74.296.877.622.178.425.493.188.74.504.266.346.463.77.611 1.185.336.988-.503 1.847-.217 2.825.277.948 1.361 1.215 2.229 1.077-.128-.632.04-1.126.178-1.739.71.465 1.193 1.275 2.021 1.561.276.099.838.109 1.114-.119.188-.158.346-.375.326-.681-.247-.06-.464-.277-.621-.484-.139-.178-.8-.948-.671-1.284.276-.721 1.667 0 2.15 0 .394-.544-.109-1.393-.868-1.492-.67-.059-1.302.217-1.962.03-.424-.128-.76-.415-1.056-.741-.266-.296-.572-.583-.759-.938-.138-.247-.187-.494-.453-.633-.237-.118-.178-.404-.178-.622 0-.306-.286-.148-.325-.346a2.68 2.68 0 0 1-.04-.483c0-.396.07-.8.217-1.166.138-.356.395-.721.789-.81.542-.119.868.276 1.321.474.523.227.345-.316.395-.662.05-.286.138-.563.227-.83.118-.365.236-.533.473-.84.227-.286.64-.858.65-.839.376-.474.8-.78 1.125-1.303.246-.485.414-1.779.256-2.579-.355-1.303-1.193-1.886-1.518-2.923-.345-1.057.611-1.768 1.508-1.986 1.302-.207 3.846-.583 5.66-2.222 1.036-.939 2.24-2.657 2.85-3.497.533-.612 1.717-.968 3.008.05-1.281.227-2.07 1.135-3.017 1.925 1.134.652 2.248.208 3.303-.355.928-.494 1.953-1.027 2.92-.287-.642.257-1.085.593-1.282 1.285.601-.198 1.222-.159 1.824-.277.414-.079 1.075-.652 1.46-.247.364.385.788.316 1.291.366.266.03 1.854.661 2.268.898.385.218 1.134.139 1.588.672.453.533.325-1.126-.128-1.6-.454-.474-1.233-.563-1.194-.454-.295-.712 2.259-.741 2.2.276.502-.138.404-.919.157-1.225-.374-.444-1.006-.691-1.578-.72-.187-.01-1.203-.01-.927-.465.129-.207 1.352-.85 2.308-.415.168-.227-.385-.672-.986-.889-.276-.099-1.085-.158-1.341-.04-.345.159-.592.346-.937.514-1.026.484-1.893.988-3.057.701-1.183-.296-2.022-1.116-3.057-1.689-.493-.276-.996-.523-1.47-.84-.433-.296-.916-.651-1.627-.651.661-1.65-.423-4.485-3.431-4.86.05-.346.483-.533.996-.504-.207-.365-2.219-1.471-3.974-1.422-.424-.01-.67-.375-.848-.711-.188-.366-.257-.998.236-1.156.917-.296 1.608 1.314 2.476.8.463-.276 1.479-.83 1.35-1.491-.108-.593-1.607-.228-2.011-.188-.868.079-1.765.138-2.16-.85-.473-1.165.75-2.024 1.765-2.192.513-.09 1.203-.1 1.687.158.394.217.75.503 1.134.73.345.198.867.03.956-.385.099-.484-.296-.978-.65-1.254.226-.158.552-.158.818-.178-.257-1.215-1.854-1.314-2.83-1.195-.424.05-.858.711-1.243.632-.335-.06-.67-.207-.986-.336-.355-.138-.809-.286-1.085-.563-.335-.336.257-.355.464-.257.552.277 1.252.119 1.863.07.355-.03.681 0 .918-.287.187-.217.286-.514.03-.76-.504-.475-1.598-.168-2.19-.1-.483.06-.789.03-1.213-.246a2.602 2.602 0 0 0-1.765-.445c-1.331.109-2.574.77-3.935.642.385.465.957.702 1.46 1.008-.326.583-1.598.247-2.1.276-.504.03-1.795.257-2.16.939 1.666-.534 2.633.197 2.79.355.237.247.316.573.286.91-.946-.445-2.15-.218-2.998.345-.355.237-.69.573-.74 1.027.474-.385.928-.474 1.096-.405 0 0-1.342.978-1.43 2.776 1.153-2.203 2.455-2.4 2.968-2.183.158.06.799.296.64.573-.157.266-.64.365-.896.464-.365.138-.77.267-1.085.504-.878.671-1.046 2.193-1.184 3.21-.039.326-.078.652-.108.988.917-2.282 2.14-3.25 3.155-2.648.178.09.888.534.494.761-.484.287-1.016.484-1.45.83-.503.395-.532.85-.572 1.452-.04.593-.089 3.042-.108 3.24-.05.612-.247 1.165-.513 1.709.621-.267 1.203-.672 1.558-1.285.236-.414.108-1.086.266-1.333.04-.07.858 4.573-.621 8.366-1.016 2.618-1.529 3.043-1.538 3.29-.02.266-.287.563-.582.494.384.138-.178.622-.316.72-.187.129-.197.356-.384.583-.474.573-1.263.8-1.983.8-.818 0-1.666-.266-2.268-.83-.759-.72-.838-1.767-.7-2.755.375-2.539 2.17-4.534 3.097-6.855.414-1.037.966-2.163 1.094-3.28.434-3.714-1.834-5.472-4.31-5.413.02-.128-.275-.464-.423-.592-.306-.237-.71-.474-1.272-.484-.927 0-2.93 1.234-3.314 2.064l-.03-.03Z"/></svg>